<svg width="20" height="20" viewBox="0 0 20 20" fill="none" xmlns="http://www.w3.org/2000/svg">
<path d="M19.6616 3.41597L16.5848 0.33934C16.4776 0.231781 16.3503 0.146438 16.21 0.0882068C16.0698 0.0299753 15.9194 0 15.7676 0C15.6157 0 15.4653 0.0299753 15.3251 0.0882068C15.1848 0.146438 15.0575 0.231781 14.9503 0.33934L5.71993 9.56925C5.50431 9.78611 5.38362 10.0797 5.38437 10.3855V13.4622C5.38437 13.7681 5.50593 14.0616 5.72231 14.278C5.93869 14.4943 6.23216 14.6159 6.53816 14.6159H9.61495C9.76651 14.616 9.91661 14.5863 10.0567 14.5284C10.1967 14.4705 10.324 14.3855 10.4313 14.2784L19.6616 5.04851C19.7689 4.94136 19.854 4.81412 19.912 4.67406C19.9701 4.534 20 4.38386 20 4.23224C20 4.08063 19.9701 3.93049 19.912 3.79043C19.854 3.65037 19.7689 3.52313 19.6616 3.41597ZM15.7685 2.79007L17.2108 4.23224L16.1531 5.28984L14.7109 3.84767L15.7685 2.79007ZM9.1342 12.3084H7.69196V10.8662L13.0763 5.48213L14.5186 6.9243L9.1342 12.3084ZM19.2299 11.5941V18.0771C19.2299 18.5871 19.0273 19.0762 18.6667 19.4368C18.306 19.7974 17.8169 20 17.3069 20H1.92299C1.41298 20 0.923861 19.7974 0.563231 19.4368C0.2026 19.0762 0 18.5871 0 18.0771V2.69393C0 2.18394 0.2026 1.69485 0.563231 1.33423C0.923861 0.97362 1.41298 0.77103 1.92299 0.77103H8.40635C8.71235 0.77103 9.00583 0.892584 9.22221 1.10895C9.43858 1.32532 9.56014 1.61878 9.56014 1.92477C9.56014 2.23076 9.43858 2.52422 9.22221 2.74058C9.00583 2.95695 8.71235 3.07851 8.40635 3.07851H2.30759V17.6925H16.9223V11.5941C16.9223 11.2881 17.0439 10.9946 17.2602 10.7782C17.4766 10.5619 17.7701 10.4403 18.0761 10.4403C18.3821 10.4403 18.6756 10.5619 18.892 10.7782C19.1083 10.9946 19.2299 11.2881 19.2299 11.5941Z" fill="#4285F4"/>
</svg>
