<svg width="47" height="26" viewBox="0 0 47 26" fill="none" xmlns="http://www.w3.org/2000/svg">
<path d="M37.8066 0.0136719C38.1315 0.0343845 38.4416 0.131414 38.7148 0.283203C39.106 0.503918 39.4087 0.827676 39.5859 1.2207C39.8444 1.80027 39.8 2.45595 39.4678 2.99414C39.143 3.52528 38.8185 4.04992 38.4863 4.58105L37.1123 6.79004C36.6472 7.54893 36.1741 8.30074 35.709 9.05273C35.7017 9.06634 35.6948 9.08014 35.6875 9.09375C37.1717 9.96311 38.5524 10.9845 39.793 12.1367C40.7307 13.006 41.5871 13.9449 42.3477 14.9453C42.9753 15.7664 43.5369 16.6225 44.0391 17.5195C44.903 19.0582 45.5599 20.6865 46.0029 22.377C46.1432 22.9081 46.2614 23.4463 46.3574 23.9844C46.3722 24.0672 46.3876 24.1574 46.4023 24.2471C46.454 24.5644 46.498 24.8819 46.498 25.1924H0.205078C0.241994 24.875 0.286211 24.5576 0.337891 24.2402C0.352659 24.1574 0.367067 24.0672 0.381836 23.9775C0.47782 23.4394 0.596055 22.9013 0.736328 22.3701C1.17938 20.6865 1.84462 19.0514 2.70117 17.5127C3.20329 16.6226 3.76395 15.7596 4.3916 14.9385C5.54352 13.4343 6.89546 12.0686 8.40918 10.8818C9.25832 10.2195 10.1589 9.61149 11.0967 9.06641C11.0894 9.05961 11.082 9.05269 11.082 9.0459C10.6168 8.28693 10.1449 7.53429 9.67969 6.78223C9.22188 6.04396 8.76347 5.31249 8.30566 4.57422C7.98082 4.04303 7.65547 3.5185 7.32324 2.9873C7.24953 2.86329 7.18293 2.73245 7.13867 2.60156C6.9836 2.14615 7.0057 1.65548 7.20508 1.21387C7.24199 1.13112 7.28721 1.04857 7.33887 0.96582C7.52346 0.689904 7.77447 0.448764 8.07715 0.283203C8.35775 0.131404 8.66783 0.0412721 8.98535 0.0136719C9.80493 -0.0552524 10.5953 0.323943 11.0088 0.993164C11.3336 1.52432 11.658 2.04892 11.9902 2.58008L13.3643 4.78809C13.8295 5.5471 14.3024 6.29964 14.7676 7.05176C14.8118 7.12752 14.863 7.20353 14.9072 7.2793C15.1731 7.1827 15.4392 7.0936 15.7051 7.00391C18.0385 6.25182 20.5268 5.83037 23.126 5.80273H23.3623C26.2865 5.80273 29.0781 6.30689 31.6553 7.22461C31.729 7.24527 31.7955 7.27226 31.8691 7.2998C31.9208 7.21706 31.9728 7.1345 32.0244 7.05176C32.4896 6.29274 32.9625 5.5402 33.4277 4.78809L34.8008 2.58008C35.1257 2.04882 35.4583 1.52442 35.7832 0.993164C36.1303 0.44126 36.7289 0.075766 37.4082 0.0136719C37.541 0.00677867 37.6739 -0.000114583 37.8066 0.0136719ZM14.1318 15.3457C13.2088 14.7665 11.8357 15.167 11.0752 16.2363C10.3146 17.3058 10.4476 18.6372 11.3779 19.2168C12.3083 19.7964 13.6739 19.3964 14.4346 18.3271C15.1952 17.2576 15.0623 15.9253 14.1318 15.3457ZM35.7314 16.2363C34.9708 15.1668 33.6047 14.7661 32.6816 15.3457C31.7586 15.9253 31.6183 17.2576 32.3789 18.3271C33.1321 19.3967 34.4983 19.7895 35.4287 19.2168C36.3518 18.6372 36.492 17.3059 35.7314 16.2363Z" fill="#34A853"/>
</svg>
