<svg width="47" height="26" viewBox="0 0 47 26" fill="none" xmlns="http://www.w3.org/2000/svg">
<path d="M46.402 24.2468C46.3872 24.1571 46.3725 24.0674 46.3577 23.9846C46.2617 23.4464 46.1436 22.9081 46.0033 22.3768C45.5602 20.6863 44.903 19.0579 44.039 17.5191C43.5369 16.6221 42.9756 15.7665 42.348 14.9454C41.5874 13.9448 40.7308 13.0064 39.793 12.137C38.5524 10.9847 37.1715 9.96344 35.6872 9.09402C35.6946 9.08022 35.702 9.06642 35.7094 9.05262C36.1746 8.3005 36.6472 7.54838 37.1124 6.78937L38.4859 4.58131C38.8182 4.05 39.1431 3.52559 39.468 2.99428C39.8003 2.45606 39.8447 1.80055 39.5862 1.22093C39.409 0.827626 39.1062 0.503318 38.7148 0.282513C38.4416 0.130709 38.1315 0.0341071 37.8066 0.0134066C37.6736 -0.000393752 37.5407 0.00650641 37.4078 0.0134066C36.7284 0.075508 36.1303 0.441217 35.7832 0.99323C35.4583 1.52454 35.126 2.04895 34.8011 2.58027L33.4276 4.78832C32.9624 5.54044 32.4898 6.29255 32.0245 7.05157C31.9729 7.13437 31.9212 7.21718 31.8695 7.29998C31.7956 7.27238 31.7292 7.24478 31.6553 7.22408C29.0782 6.30635 26.2869 5.80264 23.3626 5.80264C23.2814 5.80264 23.2002 5.80264 23.1263 5.80264C20.527 5.83024 18.0384 6.25115 15.705 7.00327C15.4391 7.09297 15.1733 7.18268 14.9075 7.27928C14.8632 7.20338 14.8115 7.12747 14.7672 7.05157C14.3019 6.29945 13.8293 5.54734 13.3641 4.78832L11.9906 2.58027C11.6583 2.04895 11.3334 1.52454 11.0085 0.99323C10.595 0.323914 9.80483 -0.055595 8.98515 0.0134066C8.66762 0.0410072 8.35748 0.130709 8.07687 0.282513C7.77411 0.448117 7.52304 0.689622 7.33843 0.965629C7.28674 1.04843 7.24243 1.13123 7.20551 1.21403C7.00613 1.65565 6.98398 2.14556 7.13905 2.60097C7.18336 2.73207 7.24982 2.86317 7.32366 2.98738C7.65596 3.51869 7.98088 4.0431 8.30579 4.57441C8.76362 5.31273 9.22146 6.04415 9.67929 6.78247C10.1445 7.53458 10.6171 8.2867 11.0823 9.04572C11.0823 9.05262 11.0897 9.05952 11.0971 9.06642C10.1593 9.61153 9.25838 10.2187 8.40917 10.8812C6.89536 12.068 5.54401 13.4342 4.39204 14.9385C3.76437 15.7596 3.20316 16.6221 2.70102 17.5122C1.84442 19.051 1.17982 20.6863 0.736757 22.3699C0.596453 22.9012 0.478295 23.4395 0.382297 23.9777C0.367528 24.0674 0.352761 24.1571 0.337992 24.2399C0.286301 24.5573 0.242 24.8747 0.205078 25.1921H46.498C46.498 24.8816 46.4537 24.5642 46.402 24.2468Z" fill="#777777"/>
<path d="M35.7317 16.236C36.4923 17.3055 36.352 18.6373 35.4289 19.2169C34.4985 19.7896 33.1324 19.3963 32.3791 18.3268C31.6186 17.2572 31.7589 15.9255 32.6819 15.3459C33.605 14.7663 34.9711 15.1665 35.7317 16.236Z" fill="white"/>
<path d="M14.1322 15.3459C15.0627 15.9255 15.1956 17.2572 14.435 18.3268C13.6744 19.3963 12.3083 19.7965 11.3779 19.2169C10.4474 18.6373 10.3145 17.3055 11.0751 16.236C11.8357 15.1665 13.2092 14.7663 14.1322 15.3459Z" fill="white"/>
</svg>
