<svg width="237" height="70" viewBox="0 0 237 70" fill="none" xmlns="http://www.w3.org/2000/svg">
<path d="M228.055 70H8.62936C3.99796 70 0.243652 66.2457 0.243652 61.6143V8.38571C0.243652 3.75431 3.99796 0 8.62936 0H228.055C232.686 0 236.44 3.75431 236.44 8.38571V61.6189C236.44 66.2457 232.686 70 228.055 70Z" fill="#A6A6A6"/>
<path d="M234.816 61.7257C234.816 65.4243 231.818 68.4269 228.106 68.4269H8.58787C4.87996 68.4269 1.86816 65.4243 1.86816 61.7257V8.28366C1.86816 4.5804 4.87996 1.57324 8.58787 1.57324H228.106C231.818 1.57324 234.816 4.5804 234.816 8.28366V61.7257Z" fill="#010203"/>
<path d="M53.0267 34.6335C52.9756 28.9951 57.6442 26.2478 57.8576 26.1225C55.2124 22.2661 51.1147 21.7417 49.6761 21.7C46.2327 21.338 42.8961 23.7604 41.1419 23.7604C39.3506 23.7604 36.6544 21.7371 33.7447 21.7974C29.9996 21.8577 26.4959 24.0249 24.5747 27.3894C20.6115 34.253 23.5677 44.3372 27.3684 49.8828C29.2664 52.6022 31.4846 55.6372 34.3944 55.5305C37.2391 55.4145 38.3018 53.7206 41.7313 53.7206C45.1282 53.7206 46.126 55.5305 49.0914 55.4609C52.145 55.4145 54.0616 52.7275 55.8993 49.9895C58.0943 46.8756 58.976 43.8035 59.0132 43.6504C58.9343 43.6225 53.0824 41.3904 53.0267 34.6335Z" fill="white"/>
<path d="M47.4254 18.0478C48.9522 16.1358 50.0009 13.5417 49.7086 10.8965C47.495 10.9986 44.7245 12.4325 43.1327 14.3027C41.722 15.9502 40.4597 18.6511 40.7892 21.1941C43.2766 21.3705 45.829 19.9319 47.4254 18.0478Z" fill="white"/>
<path d="M94.1665 55.1358H90.194L88.0176 48.3001H80.4486L78.3742 55.1358H74.5039L81.9986 31.8535H86.63L94.1665 55.1358ZM87.3632 45.4275L85.3956 39.3529C85.1867 38.7356 84.7923 37.2645 84.2168 34.9674H84.1472C83.9152 35.9559 83.5486 37.4223 83.0381 39.3529L81.103 45.4275H87.3632Z" fill="white"/>
<path d="M113.448 46.5369C113.448 49.3909 112.673 51.6509 111.132 53.3076C109.75 54.7834 108.032 55.5212 105.986 55.5212C103.777 55.5212 102.185 54.7277 101.22 53.1313H101.15V61.9811H97.4239V43.8824C97.4239 42.0865 97.3775 40.2441 97.2847 38.3507H100.57L100.774 41.0145H100.844C102.088 39.0097 103.977 38.0073 106.51 38.0073C108.492 38.0073 110.144 38.787 111.467 40.3555C112.785 41.9194 113.448 43.9799 113.448 46.5369ZM109.643 46.6715C109.643 45.0426 109.276 43.6922 108.538 42.6341C107.731 41.525 106.65 40.9727 105.29 40.9727C104.366 40.9727 103.536 41.2836 102.784 41.8869C102.037 42.4995 101.545 43.2977 101.317 44.2908C101.201 44.7549 101.141 45.1308 101.141 45.4278V48.2261C101.141 49.4512 101.517 50.4815 102.264 51.3214C103.016 52.1614 103.986 52.5791 105.183 52.5791C106.585 52.5791 107.684 52.0407 108.464 50.9548C109.253 49.8735 109.643 48.4489 109.643 46.6715Z" fill="white"/>
<path d="M132.754 46.5369C132.754 49.3909 131.983 51.6509 130.438 53.3076C129.055 54.7834 127.338 55.5212 125.291 55.5212C123.082 55.5212 121.491 54.7277 120.525 53.1313H120.456V61.9811H116.725V43.8824C116.725 42.0865 116.678 40.2441 116.585 38.3507H119.866L120.075 41.0145H120.145C121.384 39.0097 123.273 38.0073 125.806 38.0073C127.783 38.0073 129.44 38.787 130.767 40.3555C132.09 41.9194 132.754 43.9799 132.754 46.5369ZM128.957 46.6715C128.957 45.0426 128.586 43.6922 127.853 42.6341C127.046 41.525 125.964 40.9727 124.605 40.9727C123.681 40.9727 122.85 41.2836 122.099 41.8869C121.351 42.4995 120.864 43.2977 120.632 44.2908C120.516 44.7549 120.46 45.1308 120.46 45.4278V48.2261C120.46 49.4512 120.836 50.4815 121.583 51.3214C122.331 52.1614 123.305 52.5791 124.502 52.5791C125.909 52.5791 127.004 52.0407 127.783 50.9548C128.563 49.8735 128.957 48.4489 128.957 46.6715Z" fill="white"/>
<path d="M154.346 48.6112C154.346 50.5881 153.66 52.203 152.281 53.4467C150.764 54.8065 148.652 55.484 145.937 55.484C143.431 55.484 141.422 55.0014 139.9 54.0315L140.763 50.9222C142.401 51.9107 144.197 52.4072 146.156 52.4072C147.557 52.4072 148.652 52.0824 149.441 51.4513C150.221 50.8201 150.611 49.9709 150.611 48.9082C150.611 47.9661 150.29 47.1633 149.645 46.5182C149.005 45.8778 147.928 45.2745 146.434 44.7223C142.355 43.2001 140.322 40.9726 140.322 38.049C140.322 36.1324 141.037 34.5638 142.466 33.3387C143.891 32.1228 145.789 31.5103 148.165 31.5103C150.286 31.5103 152.045 31.8722 153.446 32.6147L152.513 35.6544C151.2 34.9397 149.72 34.5824 148.058 34.5824C146.745 34.5824 145.719 34.9072 144.981 35.543C144.364 36.1231 144.049 36.8192 144.049 37.6545C144.049 38.5687 144.406 39.3298 145.121 39.9284C145.743 40.4853 146.87 41.0793 148.508 41.7244C150.508 42.5319 151.984 43.4739 152.931 44.5552C153.873 45.6504 154.346 47.0008 154.346 48.6112Z" fill="white"/>
<path d="M166.677 41.149H162.565V49.3027C162.565 51.3771 163.289 52.4119 164.742 52.4119C165.41 52.4119 165.962 52.3516 166.398 52.2356L166.5 55.0664C165.767 55.3402 164.797 55.4841 163.6 55.4841C162.124 55.4841 160.973 55.0339 160.143 54.1336C159.317 53.238 158.899 51.7298 158.899 49.6136V41.149H156.449V38.3507H158.899V35.2739L162.565 34.1694V38.346H166.677V41.149Z" fill="white"/>
<path d="M185.23 46.6016C185.23 49.1865 184.492 51.298 183.021 52.9594C181.476 54.6625 179.425 55.5164 176.872 55.5164C174.408 55.5164 172.445 54.695 170.983 53.0614C169.521 51.4279 168.788 49.3675 168.788 46.8754C168.788 44.2766 169.54 42.1466 171.048 40.4898C172.556 38.8285 174.589 38.0024 177.146 38.0024C179.61 38.0024 181.592 38.8146 183.086 40.4574C184.515 42.0491 185.23 44.0957 185.23 46.6016ZM181.355 46.7269C181.355 45.1816 181.026 43.8543 180.357 42.7452C179.573 41.4087 178.455 40.7358 177.007 40.7358C175.508 40.7358 174.371 41.4087 173.587 42.7452C172.918 43.8543 172.584 45.2001 172.584 46.8012C172.584 48.3465 172.918 49.6737 173.587 50.7782C174.389 52.124 175.522 52.7923 176.97 52.7923C178.394 52.7923 179.513 52.1147 180.32 50.7457C181.012 49.6134 181.355 48.2723 181.355 46.7269Z" fill="white"/>
<path d="M197.356 41.6315C196.985 41.5665 196.591 41.5247 196.178 41.5247C194.864 41.5247 193.853 42.0213 193.138 43.0097C192.521 43.8822 192.205 44.9959 192.205 46.3278V55.1358H188.479L188.511 43.6362C188.511 41.6964 188.465 39.9376 188.372 38.3459H191.621L191.76 41.5618H191.862C192.256 40.4574 192.878 39.571 193.727 38.8981C194.558 38.2994 195.458 38.0024 196.424 38.0024C196.772 38.0024 197.078 38.021 197.361 38.0674V41.6315H197.356Z" fill="white"/>
<path d="M214.035 45.9522C214.035 46.6158 213.993 47.182 213.901 47.6414H202.707C202.749 49.3028 203.292 50.5697 204.332 51.4421C205.274 52.2217 206.494 52.6116 207.993 52.6116C209.65 52.6116 211.158 52.347 212.518 51.818L213.102 54.4075C211.515 55.099 209.636 55.4424 207.473 55.4424C204.87 55.4424 202.828 54.6813 201.338 53.1499C199.853 51.6138 199.111 49.5626 199.111 46.9871C199.111 44.4486 199.802 42.3464 201.185 40.6618C202.633 38.8659 204.591 37.9702 207.056 37.9702C209.473 37.9702 211.307 38.8659 212.55 40.6618C213.543 42.0911 214.035 43.85 214.035 45.9522ZM210.481 44.9823C210.504 43.8778 210.262 42.9218 209.757 42.1143C209.112 41.0795 208.118 40.5597 206.782 40.5597C205.561 40.5597 204.573 41.0655 203.812 42.0819C203.195 42.8893 202.823 43.85 202.707 44.9823H210.481Z" fill="white"/>
<path d="M82.6251 14.0476H78.7223V19.2266C80.4022 19.2126 81.8501 19.1105 83.4279 18.846L83.6321 20.4795C81.7155 20.8044 79.9892 20.8462 77.8406 20.8462H76.7686V12.4697H82.6297V14.0476H82.6251ZM86.1891 15.8714H87.9572V17.4631H86.1891V23.8394H84.2308V11.3281H86.1891V15.8714Z" fill="white"/>
<path d="M99.0206 18.8601H94.4124V20.9113H92.4262V18.8601H87.6138V17.324H99.0206V18.8601ZM97.8511 14.1591C97.8511 15.7648 96.0273 16.7579 93.3079 16.7579C90.5884 16.7579 88.7554 15.7648 88.7554 14.1591C88.7554 12.5673 90.5931 11.5603 93.3079 11.5464C96.032 11.5603 97.8511 12.5673 97.8511 14.1591ZM97.7722 23.6075H88.9364V19.8393H90.9086V22.0297H97.7722V23.6075ZM90.8762 14.1591C90.8622 14.8506 91.8136 15.2079 93.3079 15.2079C94.8161 15.2079 95.7396 14.8552 95.7396 14.1591C95.7396 13.4398 94.8161 13.0871 93.3079 13.0871C91.8136 13.0825 90.8622 13.4351 90.8762 14.1591Z" fill="white"/>
<path d="M110.372 22.4657H98.9648V20.8739H103.684V19.1337H100.246V14.8364H107.165V13.6669H100.232V12.103H109.095V16.3585H102.199V17.5558H109.379V19.1337H105.61V20.8739H110.367V22.4657H110.372Z" fill="white"/>
<path d="M121.709 22.3542H110.302V20.7346H121.709V22.3542ZM120.498 18.5906H111.606V12.335H120.414V13.9128H113.537V17.0406H120.498V18.5906Z" fill="white"/>
<path d="M128.87 14.7019H121.57V13.1519H124.275V11.5323H126.234V13.1519H128.87V14.7019ZM128.475 18.3031C128.461 20.0712 127.074 21.3056 125.255 21.3056C123.38 21.3056 122.006 20.0665 122.02 18.3031C122.006 16.5489 123.38 15.3005 125.255 15.3005C127.074 15.3005 128.461 16.5489 128.475 18.3031ZM123.895 18.3031C123.881 19.2266 124.452 19.7185 125.255 19.7185C126.03 19.7185 126.586 19.2312 126.6 18.3031C126.586 17.4074 126.03 16.8877 125.255 16.8737C124.452 16.8923 123.881 17.4074 123.895 18.3031ZM131.533 16.1266H133.301V17.7462H131.533V23.8116H129.603V11.3281H131.533V16.1266Z" fill="white"/>
<path d="M133.993 21.7279L132.972 20.1779C136.146 18.6743 137.478 16.832 137.756 14.1404H133.677V12.6229H139.756C139.756 16.47 138.531 19.5978 133.993 21.7279ZM143.511 23.8116H141.524V11.3281H143.511V23.8116Z" fill="white"/>
</svg>
