<svg width="36" height="40" viewBox="0 0 36 40" fill="none" xmlns="http://www.w3.org/2000/svg">
<path d="M35.5078 28.6947C35.2565 29.3275 35.0121 29.9278 34.7467 30.5085C34.1183 31.8786 33.3572 33.1379 32.4984 34.2927C31.3184 35.8717 30.3408 36.9613 29.5937 37.5746C28.4346 38.5728 27.1917 39.0752 25.8651 39.1078C24.9085 39.1078 23.7634 38.8534 22.4227 38.3379C21.0821 37.8225 19.8392 37.5746 18.715 37.5746C17.535 37.5746 16.2572 37.829 14.9026 38.3379C13.5341 38.8534 12.4448 39.1209 11.6069 39.1405C10.3291 39.1927 9.05833 38.6707 7.79451 37.5615C6.97756 36.896 5.97209 35.7673 4.76413 34.1753C3.46539 32.4593 2.39009 30.4824 1.5522 28.2184C0.651466 25.7782 0.20459 23.4163 0.20459 21.1197C0.20459 18.4903 0.812062 16.2263 2.02701 14.3407C2.97662 12.8139 4.25441 11.6134 5.83942 10.7391C7.4384 9.85831 9.14212 9.40811 10.9925 9.37549C12.0049 9.37549 13.3316 9.66257 14.9864 10.2433C16.6273 10.8239 17.6816 11.111 18.1565 11.111C18.4986 11.111 19.6716 10.7652 21.6686 10.0801C23.5539 9.44726 25.1389 9.18628 26.4446 9.28415C29.9708 9.55165 32.6241 10.85 34.3767 13.1858C31.2206 14.967 29.6705 17.4659 29.6915 20.676C29.7124 23.1749 30.6899 25.2562 32.5961 26.9069C33.462 27.6768 34.4255 28.2771 35.5078 28.6947Z" fill="#111111"/>
<path d="M17.8845 9.25833C17.8496 9.02345 17.8356 8.77551 17.8356 8.51453C17.8356 6.63546 18.7084 4.61938 20.2725 2.98172C21.0545 2.14658 22.0391 1.4615 23.2331 0.900387C24.4271 0.352325 25.5652 0.0521964 26.6195 0C26.6405 0.254457 26.6684 0.528488 26.6684 0.782946C26.6684 2.74683 25.9004 4.56718 24.3712 6.26356C22.5348 8.27965 20.3074 9.44102 17.8845 9.25833Z" fill="#111111"/>
</svg>
