<svg width="9" height="10" viewBox="0 0 9 10" fill="none" xmlns="http://www.w3.org/2000/svg">
<g clip-path="url(#clip0_744_10105)">
<path d="M7.50588 0.602219H6.09542V0.158479C6.09542 0.0633914 6.03203 0 5.93694 0H3.05263C2.95755 0 2.89415 0.0633914 2.89415 0.158479V0.602219H1.49954C1.21428 0.602219 0.976562 0.824089 0.976562 1.10935V2.187V7.81299V8.89065C0.976562 9.17591 1.21428 9.41363 1.49954 9.41363H2.91V9.85737C2.91 9.95246 2.97339 10.0158 3.06848 10.0158H5.96864C6.06373 10.0158 6.12712 9.95246 6.12712 9.85737V9.41363H7.53758C7.82284 9.41363 8.06056 9.17591 8.06056 8.89065V7.81299V2.187V1.10935C8.02886 0.824089 7.79114 0.602219 7.50588 0.602219ZM3.21111 0.316957H5.79431V0.602219H3.21111V0.316957ZM1.49954 0.919176H3.06848H5.96864H7.53758C7.64851 0.919176 7.7436 1.01426 7.7436 1.1252V2.04437H1.29352V1.10935C1.29352 0.998415 1.38861 0.919176 1.49954 0.919176ZM7.7119 7.65452H1.29352V2.34548H7.7119V7.65452ZM5.79431 9.68304H3.21111V9.39778H5.79431V9.68304ZM7.50588 9.09667H5.93694H3.05263H1.49954C1.38861 9.09667 1.29352 9.00158 1.29352 8.89065V7.97147H7.7119V8.89065C7.7119 9.00158 7.61682 9.09667 7.50588 9.09667Z" fill="#605000"/>
<path d="M3.52789 5.68912H4.06672L3.829 6.40227C3.78146 6.5449 3.84485 6.70338 3.97163 6.78262C4.01918 6.81431 4.08257 6.83016 4.13011 6.83016C4.2252 6.83016 4.30444 6.79847 4.36783 6.71923L5.7149 5.11859C5.76244 5.0552 5.79414 4.99181 5.79414 4.91257C5.79414 4.73824 5.65151 4.59561 5.47718 4.59561H5.12853L5.7466 3.54965C5.80999 3.45457 5.80999 3.32778 5.7466 3.2327C5.6832 3.13761 5.58812 3.07422 5.47718 3.07422H4.1935C4.05087 3.07422 3.93994 3.15346 3.8924 3.29609L3.22679 5.27707C3.19509 5.37216 3.21094 5.48309 3.27433 5.56233C3.33772 5.64157 3.43281 5.68912 3.52789 5.68912ZM4.1935 3.37533H5.47718L4.57385 4.89672H5.47718L4.11427 6.49736L4.51046 5.35631H3.51205L4.1935 3.37533Z" fill="#605000"/>
</g>
<defs>
<clipPath id="clip0_744_10105">
<rect width="7.0523" height="10" fill="white" transform="translate(0.972656)"/>
</clipPath>
</defs>
</svg>
