<svg width="93" height="105" viewBox="0 0 93 105" fill="none" xmlns="http://www.w3.org/2000/svg">
<path d="M37.2472 60.2264L32.8707 55.9229L24.1294 47.3273L32.8707 38.7202L46.0001 25.8097L54.7531 34.4167L41.6237 47.3273L46.0001 51.6194L63.506 34.4167L46.0001 17.2026L19.7529 43.0238L11 34.4167L37.2472 8.60697L46.0001 -8.39233e-05L54.7531 8.60697L72.2473 25.8097L81.0003 34.4167L72.2473 43.0238L54.7531 60.2264L46.0001 68.8335L37.2472 60.2264Z" fill="#F44336"/>
<path d="M87.352 103.969L80.7664 97.1053V103.969H76.376V82.1001H80.7664V93.7708L87.0741 87.7687H92.3815L84.3788 95.3269L92.6594 103.969H87.352Z" fill="#111111"/>
<path d="M72.5511 91.8817C71.8471 91.3815 71.0691 91.0018 70.2169 90.7424C69.3833 90.4646 68.6145 90.3256 67.9106 90.3256C66.0581 90.3256 65.1318 90.8628 65.1318 91.9373C65.1318 92.3634 65.2893 92.7339 65.6042 93.0488C65.9192 93.3452 66.5212 93.5953 67.4104 93.799C69.8742 94.3733 71.6804 95.1143 72.829 96.022C73.9775 96.9298 74.5518 98.0968 74.5518 99.5233C74.5518 100.412 74.3758 101.191 74.0238 101.857C73.6904 102.524 73.218 103.071 72.6067 103.497C71.9953 103.941 71.2543 104.266 70.3837 104.469C69.5315 104.692 68.5775 104.803 67.5216 104.803C66.0766 104.803 64.7613 104.599 63.5757 104.192C62.4087 103.803 61.3064 103.247 60.269 102.524L61.8529 99.4399C62.5569 100.033 63.3442 100.505 64.2149 100.857C65.0855 101.209 66.021 101.385 67.0214 101.385C68.2255 101.385 69.0499 101.246 69.4945 100.968C69.9391 100.69 70.1614 100.227 70.1614 99.5788C70.1614 99.0231 69.902 98.5692 69.3833 98.2172C68.8831 97.8653 68.1514 97.5596 67.1881 97.3003C66.021 96.9853 65.03 96.6611 64.2149 96.3277C63.3998 95.9943 62.7329 95.6238 62.2142 95.2162C61.714 94.7901 61.3435 94.3085 61.1027 93.7713C60.8618 93.2155 60.7414 92.5671 60.7414 91.8261C60.7414 91.0851 60.8989 90.4182 61.2138 89.8254C61.5287 89.2141 61.9733 88.6954 62.5476 88.2693C63.1404 87.8433 63.8444 87.5191 64.6595 87.2968C65.4746 87.056 66.3823 86.9355 67.3826 86.9355C68.1607 86.9355 68.8554 86.9911 69.4667 87.1023C70.0965 87.1949 70.6708 87.3338 71.1895 87.5191C71.7267 87.7043 72.2176 87.9266 72.6622 88.186C73.1068 88.4268 73.5329 88.6954 73.9405 88.9918L72.5511 91.8817Z" fill="#111111"/>
<path d="M46.0346 98.6345C46.4237 99.5237 47.0165 100.209 47.813 100.691C48.6096 101.172 49.6007 101.413 50.7863 101.413C51.8978 101.413 52.9074 101.228 53.8151 100.857C54.7414 100.487 55.575 99.8571 56.316 98.9679L59.1225 101.108C58.1592 102.275 57.0014 103.182 55.6491 103.831C54.2968 104.479 52.824 104.803 51.2309 104.803C49.86 104.803 48.5818 104.59 47.3962 104.164C46.2106 103.757 45.1732 103.164 44.284 102.386C43.4134 101.626 42.7187 100.7 42.2 99.6071C41.6998 98.4956 41.4497 97.2544 41.4497 95.8835C41.4497 94.5497 41.6905 93.3364 42.1722 92.2434C42.6538 91.1319 43.3115 90.1871 44.1451 89.4091C44.9787 88.6125 45.9605 88.0012 47.0906 87.5751C48.2391 87.1305 49.4803 86.9082 50.8141 86.9082C52.1108 86.9082 53.2964 87.1212 54.3709 87.5473C55.4638 87.9734 56.4086 88.5662 57.2052 89.3257C58.0018 90.0667 58.6316 90.9652 59.0947 92.0211C59.5764 93.0585 59.845 94.1978 59.9006 95.4389L46.0346 98.6345ZM51.0086 90.2983C49.3599 90.2983 48.0539 90.7614 47.0906 91.6876C46.1458 92.5954 45.6271 93.8365 45.5345 95.4112L55.5379 93.0214C55.0563 92.0581 54.4264 91.3635 53.6484 90.9374C52.8703 90.5113 51.9904 90.2983 51.0086 90.2983Z" fill="#111111"/>
<path d="M35.5283 82.1001H39.9188V103.969H36.1952L35.6673 101.829C35.3338 102.255 34.9263 102.635 34.4446 102.968C33.963 103.32 33.435 103.608 32.8608 103.83C32.305 104.071 31.7215 104.247 31.1101 104.358C30.4988 104.488 29.8968 104.543 29.304 104.525C28.1739 104.506 27.0995 104.274 26.0806 103.83C25.0803 103.385 24.1911 102.783 23.413 102.024C22.6535 101.264 22.0514 100.366 21.6068 99.3283C21.1622 98.2724 20.9399 97.1331 20.9399 95.9105C20.9399 94.6508 21.1715 93.4929 21.6346 92.437C22.0978 91.3626 22.7183 90.4456 23.4964 89.6861C24.2744 88.908 25.1636 88.306 26.164 87.8799C27.1643 87.4353 28.2017 87.213 29.2762 87.213C30.5914 87.213 31.7863 87.4353 32.8608 87.8799C33.9352 88.306 34.8244 88.908 35.5283 89.6861V82.1001ZM30.1654 101.134C30.8323 101.134 31.4621 101.014 32.0549 100.773C32.6477 100.532 33.1572 100.19 33.5832 99.7451C34.0278 99.282 34.3705 98.7262 34.6114 98.0779C34.8707 97.4295 35.0004 96.707 35.0004 95.9105C35.0004 95.0768 34.8707 94.3358 34.6114 93.6875C34.3705 93.0391 34.0278 92.4926 33.5832 92.048C33.1572 91.5849 32.6477 91.2329 32.0549 90.9921C31.4621 90.7513 30.8323 90.6308 30.1654 90.6308C29.4985 90.6308 28.8686 90.7513 28.2758 90.9921C27.683 91.2329 27.1643 91.5849 26.7197 92.048C26.2937 92.4926 25.9509 93.0391 25.6916 93.6875C25.4508 94.3358 25.3304 95.0768 25.3304 95.9105C25.3304 96.707 25.4508 97.4295 25.6916 98.0779C25.9509 98.7262 26.2937 99.282 26.7197 99.7451C27.1643 100.19 27.683 100.532 28.2758 100.773C28.8686 101.014 29.4985 101.134 30.1654 101.134Z" fill="#111111"/>
<path d="M4.36263 82.1001L10.4481 99.2172L16.5613 82.1001H20.9239L12.8656 103.969H8.05836L0 82.1001H4.36263Z" fill="#111111"/>
</svg>
