<svg width="237" height="70" viewBox="0 0 237 70" fill="none" xmlns="http://www.w3.org/2000/svg">
<path d="M227.494 70H8.74942C3.93608 70 0 66.0593 0 61.2459V8.74942C0 3.94072 3.93608 0 8.74942 0H227.494C232.308 0 236.244 3.94072 236.244 8.74942V61.2459C236.244 66.0593 232.308 70 227.494 70Z" fill="#070606"/>
<path d="M227.494 1.39712C231.546 1.39712 234.842 4.6973 234.842 8.74942V61.2459C234.842 65.2981 231.546 68.5982 227.494 68.5982H8.74942C4.6973 68.5982 1.40176 65.2981 1.40176 61.2459V8.74942C1.40176 4.6973 4.6973 1.39712 8.74942 1.39712H227.494ZM227.494 0H8.74942C3.93608 0 0 3.94072 0 8.74942V61.2459C0 66.0593 3.93608 69.9954 8.74942 69.9954H227.494C232.308 69.9954 236.244 66.0546 236.244 61.2459V8.74942C236.244 3.94072 232.308 0 227.494 0Z" fill="#A19991"/>
<path d="M119.233 38.0657C115.116 38.0657 111.765 41.1942 111.765 45.5062C111.765 49.7904 115.121 52.9467 119.233 52.9467C123.35 52.9467 126.702 49.7904 126.702 45.5062C126.702 41.1942 123.35 38.0657 119.233 38.0657ZM119.233 50.0179C116.977 50.0179 115.033 48.1612 115.033 45.5109C115.033 42.8327 116.982 40.9992 119.233 40.9992C121.489 40.9992 123.429 42.8327 123.429 45.5109C123.429 48.1566 121.489 50.0179 119.233 50.0179ZM102.937 38.0657C98.8195 38.0657 95.4637 41.1942 95.4637 45.5062C95.4637 49.7904 98.8195 52.9467 102.937 52.9467C107.054 52.9467 110.405 49.7904 110.405 45.5062C110.41 41.1942 107.054 38.0657 102.937 38.0657ZM102.937 50.0179C100.681 50.0179 98.7313 48.1612 98.7313 45.5109C98.7313 42.8327 100.681 40.9992 102.937 40.9992C105.192 40.9992 107.137 42.8327 107.137 45.5109C107.137 48.1566 105.192 50.0179 102.937 50.0179ZM83.5487 40.3494V43.5057H91.1052C90.8778 45.2834 90.2883 46.5784 89.3878 47.4836C88.2877 48.5836 86.5657 49.7951 83.5487 49.7951C78.8978 49.7951 75.2588 46.0447 75.2588 41.3938C75.2588 36.7382 78.8978 32.9925 83.5487 32.9925C86.0598 32.9925 87.8932 33.9811 89.2439 35.2483L91.4719 33.0203C89.5828 31.2147 87.0716 29.8315 83.5487 29.8315C77.1804 29.8315 71.8193 35.0209 71.8193 41.3938C71.8193 47.7667 77.1757 52.9514 83.5487 52.9514C86.9881 52.9514 89.5827 51.8281 91.6111 49.7069C93.6998 47.6228 94.345 44.6893 94.345 42.3221C94.345 41.5887 94.2893 40.9157 94.1779 40.3494H83.5487ZM162.837 42.8002C162.219 41.1385 160.325 38.0657 156.464 38.0657C152.63 38.0657 149.445 41.0828 149.445 45.5062C149.445 49.679 152.602 52.9467 156.83 52.9467C160.242 52.9467 162.219 50.8626 163.031 49.6512L160.492 47.957C159.652 49.1963 158.492 50.0132 156.83 50.0132C155.169 50.0132 153.985 49.252 153.219 47.7621L163.175 43.6449L162.837 42.8002ZM152.685 45.2834C152.597 42.4056 154.913 40.9435 156.575 40.9435C157.875 40.9435 158.97 41.5887 159.332 42.5217L152.685 45.2834ZM144.6 52.4965H147.872V30.6206H144.6V52.4965ZM139.239 39.7274H139.127C138.394 38.8548 136.987 38.0657 135.21 38.0657C131.487 38.0657 128.076 41.3334 128.076 45.5341C128.076 49.7069 131.487 52.9467 135.21 52.9467C136.987 52.9467 138.394 52.1576 139.127 51.2572H139.239V52.3294C139.239 55.1793 137.716 56.7018 135.265 56.7018C133.265 56.7018 132.021 55.2629 131.515 54.0514L128.67 55.235C129.482 57.2077 131.659 59.6306 135.265 59.6306C139.099 59.6306 142.344 57.3748 142.344 51.8792V38.516H139.243V39.7274H139.239ZM135.488 50.0179C133.232 50.0179 131.348 48.1287 131.348 45.5387C131.348 42.9162 133.237 40.9992 135.488 40.9992C137.716 40.9992 139.461 42.9162 139.461 45.5387C139.461 48.1287 137.716 50.0179 135.488 50.0179ZM178.154 30.6206H170.328V52.4965H173.596V44.2066H178.154C181.774 44.2066 185.33 41.5841 185.33 37.4113C185.33 33.2431 181.774 30.6206 178.154 30.6206ZM178.237 41.1663H173.596V33.6655H178.237C180.679 33.6655 182.062 35.6846 182.062 37.4159C182.067 39.1101 180.679 41.1663 178.237 41.1663ZM198.419 38.024C196.056 38.024 193.606 39.0637 192.594 41.3706L195.49 42.582C196.107 41.3706 197.259 40.976 198.47 40.976C200.16 40.976 201.877 41.9925 201.905 43.7935V44.0163C201.311 43.6774 200.048 43.1715 198.498 43.1715C195.374 43.1715 192.195 44.8889 192.195 48.0962C192.195 51.0251 194.752 52.9096 197.625 52.9096C199.821 52.9096 201.032 51.9256 201.789 50.7698H201.91V52.4594H205.061V44.0766C205.061 40.1916 202.16 38.024 198.419 38.024ZM198.024 50.0132C196.952 50.0132 195.462 49.4794 195.462 48.1566C195.462 46.467 197.319 45.8172 198.92 45.8172C200.359 45.8172 201.032 46.1282 201.905 46.5506C201.654 48.579 199.909 50.0132 198.024 50.0132ZM216.544 38.5021L212.803 47.9848H212.687L208.802 38.5021H205.284L211.114 51.7585L207.79 59.134H211.197L220.174 38.5067H216.544V38.5021ZM187.131 52.4965H190.394V30.6206H187.131V52.4965Z" fill="white"/>
<path d="M18.2603 13.21C17.7497 13.7485 17.4526 14.584 17.4526 15.6655V54.3346C17.4526 55.4161 17.7497 56.2516 18.2603 56.79L18.3902 56.9154L40.0526 35.253V34.7424L18.3902 13.0801L18.2603 13.21Z" fill="#73C9DF"/>
<mask id="mask0_456_3714" style="mask-type:luminance" maskUnits="userSpaceOnUse" x="40" y="27" width="18" height="16">
<path d="M47.2746 42.4799L40.0522 35.2529V34.7424L47.2746 27.52L55.9961 32.4726C58.4376 33.8604 58.4376 36.1302 55.9961 37.518L47.437 42.3824L47.2746 42.4799Z" fill="white"/>
</mask>
<g mask="url(#mask0_456_3714)">
<path d="M58.4376 27.52H40.0522V42.4799H58.4376V27.52Z" fill="url(#paint0_linear_456_3714)"/>
</g>
<mask id="mask1_456_3714" style="mask-type:luminance" maskUnits="userSpaceOnUse" x="18" y="34" width="30" height="24">
<path d="M47.4374 42.3823L40.0526 34.9976L18.2603 56.7899C19.0633 57.6439 20.3954 57.746 21.8946 56.8966L47.4374 42.3823Z" fill="white"/>
</mask>
<g mask="url(#mask1_456_3714)">
<path d="M58.8138 46.3743L32.8487 72.3394L6.88818 46.3743L32.8487 20.4092L58.8138 46.3743Z" fill="url(#paint1_linear_456_3714)"/>
</g>
<mask id="mask2_456_3714" style="mask-type:luminance" maskUnits="userSpaceOnUse" x="18" y="12" width="30" height="23">
<path d="M47.4374 27.6175L21.8946 13.0986C20.3954 12.2491 19.0633 12.3513 18.2603 13.2053L40.0526 34.9976L47.4374 27.6175Z" fill="white"/>
</mask>
<g mask="url(#mask2_456_3714)">
<path d="M32.8487 -2.33936L58.8138 23.6258L32.8487 49.5862L6.88818 23.6258L32.8487 -2.33936Z" fill="url(#paint2_linear_456_3714)"/>
</g>
<path d="M82.4998 14.0315H78.5962V19.2115C80.2765 19.1976 81.7246 19.0955 83.3028 18.8309L83.507 20.4648C81.59 20.7897 79.8634 20.8314 77.7143 20.8314H76.6421V12.4534H82.5044V14.0315H82.4998ZM86.0645 15.8557H87.833V17.4477H86.0645V23.8253H84.1058V11.3115H86.0645V15.8557Z" fill="white"/>
<path d="M98.8988 18.8447H94.2897V20.8963H92.3031V18.8447H87.4897V17.3083H98.8988V18.8447ZM97.7291 14.1381C97.7291 15.7441 95.905 16.7374 93.185 16.7374C90.465 16.7374 88.6316 15.7441 88.6316 14.1381C88.6316 12.5461 90.4696 11.5388 93.185 11.5249C95.9096 11.5435 97.7291 12.5507 97.7291 14.1381ZM97.6502 23.5931H88.8126V19.8241H90.7853V22.0149H97.6502V23.5931ZM90.7528 14.1381C90.7389 14.8297 91.6904 15.1871 93.185 15.1871C94.6935 15.1871 95.6172 14.8344 95.6172 14.1381C95.6172 13.4187 94.6935 13.0659 93.185 13.0659C91.6904 13.0659 90.7389 13.4187 90.7528 14.1381Z" fill="white"/>
<path d="M110.252 22.4511H98.8428V20.8591H103.563V19.1185H100.124V14.8203H107.044V13.6506H100.11V12.0864H108.975V16.3428H102.083V17.5403H109.263V19.1185H105.494V20.8591H110.252V22.4511Z" fill="white"/>
<path d="M121.591 22.3401H110.182V20.7201H121.591V22.3401ZM120.38 18.5757H111.486V12.3188H120.296V13.897H113.417V17.0254H120.38V18.5757Z" fill="white"/>
<path d="M128.753 14.686H121.452V13.1357H124.158V11.5158H126.117V13.1357H128.753V14.686ZM128.359 18.2879C128.345 20.0563 126.957 21.291 125.138 21.291C123.262 21.291 121.888 20.0517 121.902 18.2879C121.888 16.5333 123.262 15.2847 125.138 15.2847C126.957 15.2847 128.345 16.5333 128.359 18.2879ZM123.778 18.2879C123.764 19.2115 124.335 19.7035 125.138 19.7035C125.913 19.7035 126.47 19.2162 126.484 18.2879C126.47 17.392 125.913 16.8722 125.138 16.8582C124.335 16.8722 123.764 17.392 123.778 18.2879ZM131.418 16.1109H133.186V17.7309H131.418V23.7974H129.487V11.3115H131.418V16.1109Z" fill="white"/>
<path d="M133.878 21.7134L132.856 20.1631C136.031 18.6592 137.363 16.8165 137.642 14.1243H133.562V12.6019H139.642C139.642 16.4544 138.417 19.5782 133.878 21.7134ZM143.398 23.7974H141.411V11.3115H143.398V23.7974Z" fill="white"/>
<defs>
<linearGradient id="paint0_linear_456_3714" x1="54.406" y1="35.0004" x2="12.097" y2="35.0004" gradientUnits="userSpaceOnUse">
<stop stop-color="#FAEA07"/>
<stop offset="0.1707" stop-color="#FBD505"/>
<stop offset="0.5375" stop-color="#FDAC03"/>
<stop offset="0.8265" stop-color="#FF9301"/>
<stop offset="1" stop-color="#FF8A00"/>
</linearGradient>
<linearGradient id="paint1_linear_456_3714" x1="41.8194" y1="37.4055" x2="2.02598" y2="77.1989" gradientUnits="userSpaceOnUse">
<stop stop-color="#FB2027"/>
<stop offset="1" stop-color="#C70A5B"/>
</linearGradient>
<linearGradient id="paint2_linear_456_3714" x1="1.84722" y1="-7.37817" x2="34.3378" y2="25.1124" gradientUnits="userSpaceOnUse">
<stop stop-color="#358D50"/>
<stop offset="0.3166" stop-color="#4B9F4E"/>
<stop offset="0.7397" stop-color="#63B54A"/>
<stop offset="1" stop-color="#6CBD48"/>
</linearGradient>
</defs>
</svg>
