<svg width="30" height="30" viewBox="0 0 30 30" fill="none" xmlns="http://www.w3.org/2000/svg">
<path d="M26.6666 15.2591C26.6666 14.2998 26.5872 13.5998 26.4153 12.8739H15.238V17.2035H21.7988C21.6666 18.2794 20.9523 19.8998 19.365 20.9886L19.3427 21.1336L22.8768 23.8166L23.1216 23.8406C25.3703 21.8054 26.6666 18.8109 26.6666 15.2591Z" fill="#4285F4"/>
<path d="M15.237 26.6665C18.4512 26.6665 21.1496 25.6294 23.1205 23.8405L19.3639 20.9886C18.3586 21.6756 17.0094 22.1553 15.237 22.1553C12.0888 22.1553 9.41692 20.1201 8.46445 17.3071L8.32484 17.3187L4.65011 20.1058L4.60205 20.2367C6.55969 24.0479 10.5809 26.6665 15.237 26.6665Z" fill="#34A853"/>
<path d="M8.46555 17.3074C8.21423 16.5814 8.06878 15.8036 8.06878 14.9999C8.06878 14.1962 8.21423 13.4184 8.45232 12.6925L8.44567 12.5379L4.72488 9.70612L4.60314 9.76286C3.7963 11.3444 3.33333 13.1203 3.33333 14.9999C3.33333 16.8796 3.7963 18.6554 4.60314 20.2369L8.46555 17.3074Z" fill="#FBBC05"/>
<path d="M15.237 7.84452C17.4724 7.84452 18.9803 8.79081 19.8402 9.5816L23.2 6.36677C21.1365 4.48714 18.4513 3.33344 15.237 3.33344C10.5809 3.33344 6.55971 5.95193 4.60205 9.76301L8.45125 12.6927C9.41694 9.87972 12.0889 7.84452 15.237 7.84452Z" fill="#EB4335"/>
</svg>
