<svg width="52" height="52" viewBox="0 0 52 52" fill="none" xmlns="http://www.w3.org/2000/svg">
<g clip-path="url(#clip0_332_2694)">
<path fill-rule="evenodd" clip-rule="evenodd" d="M24.0265 2C14.9146 2 7.59394 9.30252 7.59394 18.5181C7.59419 18.7874 7.60056 19.0568 7.61307 19.3258C5.65762 20.1089 3.97963 21.478 2.79943 23.2533C1.61923 25.0285 0.991996 27.127 1.00008 29.2731C1.00008 35.288 5.73882 40 11.6612 40H21.5109V36.7429H11.6612C7.44307 36.7429 4.18757 33.4358 4.18757 29.2731C4.18757 25.7641 6.48894 22.8826 9.71894 22.0466C10.1132 21.9444 10.4542 21.6921 10.6723 21.3413C10.8904 20.9905 10.969 20.5677 10.8919 20.1597C10.8282 19.8253 10.7814 19.1347 10.7814 18.5181C10.7814 11.1569 16.6209 5.25714 24.0265 5.25714C29.526 5.25714 34.1628 8.51429 36.1815 13.1937L36.5619 14.1622C36.6806 14.4637 36.8849 14.722 37.1485 14.9038C37.4121 15.0857 37.7229 15.1828 38.0409 15.1827C44.0823 15.1827 48.8125 19.9751 48.8125 25.9639C48.8125 31.9527 44.0823 36.7429 38.0409 36.7429H31.4891V40H38.0409C45.7865 40 52 33.8071 52 25.9639C52 18.492 46.3645 12.5206 39.1353 11.969L39.1331 11.956L39.1119 11.9082C36.5895 6.03451 30.8053 2 24.0265 2Z" fill="#4285F4"/>
<path d="M25.4117 24.8089L25.4118 24.8087C25.5999 24.6185 25.8603 24.4986 26.1546 24.4986C26.7348 24.4986 27.1938 24.9671 27.1938 25.547V49.8071C27.1938 50.387 26.7348 50.8555 26.1546 50.8555C25.5744 50.8555 25.1154 50.387 25.1154 49.8071V28.0874L19.4653 33.7948C19.4648 33.7952 19.4643 33.7957 19.4639 33.7962C19.0613 34.2139 18.3982 34.2143 17.9951 33.7973C17.5846 33.3912 17.585 32.7255 17.9962 32.3197C17.9967 32.3193 17.9972 32.3188 17.9977 32.3183L25.4117 24.8089Z" fill="#4285F4" stroke="#4285F4" stroke-width="0.5"/>
<path d="M27.1956 28.0874V49.8071C27.1956 50.387 26.7366 50.8555 26.1564 50.8555C25.5762 50.8555 25.1172 50.387 25.1172 49.8071V25.547C25.1172 24.9671 25.5762 24.4986 26.1564 24.4986C26.4507 24.4986 26.7111 24.6185 26.8992 24.8088L26.8993 24.8089L34.3133 32.3183C34.3138 32.3188 34.3143 32.3193 34.3148 32.3198C34.726 32.7255 34.7264 33.3911 34.3159 33.7973C33.9128 34.2143 33.2497 34.2139 32.8471 33.7962C32.8466 33.7957 32.8462 33.7952 32.8457 33.7948L27.1956 28.0874Z" fill="#4285F4" stroke="#4285F4" stroke-width="0.5"/>
</g>
<defs>
<clipPath id="clip0_332_2694">
<rect width="52" height="52" fill="white"/>
</clipPath>
</defs>
</svg>
