<svg width="48" height="52" viewBox="0 0 48 52" fill="none" xmlns="http://www.w3.org/2000/svg">
<path d="M22.4117 33.5447L22.4118 33.5448C22.5999 33.735 22.8603 33.8549 23.1546 33.8549C23.7348 33.8549 24.1938 33.3864 24.1938 32.8065V8.54643C24.1938 7.96654 23.7348 7.49805 23.1546 7.49805C22.5744 7.49805 22.1154 7.96654 22.1154 8.54643V30.2662L16.4653 24.5588C16.4648 24.5583 16.4643 24.5578 16.4639 24.5573C16.0613 24.1396 15.3982 24.1393 14.9951 24.5562C14.5846 24.9624 14.585 25.628 14.9962 26.0338C14.9967 26.0343 14.9972 26.0347 14.9977 26.0352L22.4117 33.5447Z" fill="#4285F4" stroke="#4285F4" stroke-width="0.5"/>
<path d="M23.9004 33.5448L23.9005 33.5447L31.3145 26.0352C31.315 26.0348 31.3155 26.0343 31.316 26.0338C31.7272 25.6281 31.7276 24.9624 31.3172 24.5562C30.9141 24.1393 30.251 24.1396 29.8484 24.5573C29.8479 24.5578 29.8474 24.5583 29.8469 24.5588L24.1968 30.2662V8.54643C24.1968 7.96654 23.7379 7.49805 23.1576 7.49805C22.5774 7.49805 22.1184 7.96654 22.1184 8.54643V32.8065C22.1184 33.3864 22.5774 33.8549 23.1576 33.8549C23.4519 33.8549 23.7123 33.735 23.9004 33.5448ZM42.1433 28.0202C41.563 28.0202 41.1041 28.4887 41.1041 29.0686V41.9013H5.21121V29.0686C5.21121 28.4887 4.75224 28.0202 4.17201 28.0202C3.59178 28.0202 3.13281 28.4887 3.13281 29.0686V42.9497C3.13281 43.5295 3.59178 43.998 4.17201 43.998H42.1433C42.7235 43.998 43.1825 43.5295 43.1825 42.9497V29.0686C43.1825 28.4887 42.7235 28.0202 42.1433 28.0202Z" fill="#4285F4" stroke="#4285F4" stroke-width="0.5"/>
</svg>
