<svg width="52" height="52" viewBox="0 0 52 52" fill="none" xmlns="http://www.w3.org/2000/svg">
<g clip-path="url(#clip0_332_2714)">
<path d="M39.4008 33.9583C38.5224 33.9616 37.6538 34.1424 36.847 34.4898C36.0402 34.8372 35.3119 35.3439 34.7058 35.9797L18.808 28.0243C19.199 26.8385 19.199 25.5584 18.808 24.3726L34.7319 16.2737C35.8725 17.4757 37.4192 18.2106 39.0715 18.3357C40.7238 18.4607 42.3636 17.967 43.6721 16.9504C44.9806 15.9339 45.8644 14.4671 46.1517 12.8352C46.439 11.2033 46.1093 9.52281 45.2267 8.12046C44.344 6.71811 42.9715 5.69404 41.3758 5.24728C39.7802 4.80053 38.0754 4.96301 36.5929 5.70315C35.1104 6.44329 33.956 7.70822 33.3542 9.25206C32.7523 10.7959 32.746 12.5084 33.3364 14.0566L17.569 22.0773C16.7174 21.0358 15.5646 20.2832 14.2685 19.9227C12.9725 19.5621 11.5966 19.6113 10.3296 20.0633C9.06253 20.5154 7.96631 21.3483 7.19119 22.4478C6.41608 23.5473 6 24.8597 6 26.205C6 27.5503 6.41608 28.8626 7.19119 29.9621C7.96631 31.0617 9.06253 31.8946 10.3296 32.3466C11.5966 32.7987 12.9725 32.8478 14.2685 32.4873C15.5646 32.1267 16.7174 31.3741 17.569 30.3327L33.2973 38.249C33.0307 38.9624 32.8938 39.7176 32.893 40.4791C32.893 41.7688 33.2754 43.0296 33.992 44.1019C34.7085 45.1743 35.7269 46.0101 36.9184 46.5036C38.11 46.9972 39.4211 47.1263 40.686 46.8747C41.9509 46.6231 43.1129 46.002 44.0248 45.0901C44.9368 44.1781 45.5578 43.0162 45.8094 41.7513C46.061 40.4864 45.9319 39.1752 45.4384 37.9837C44.9448 36.7922 44.109 35.7738 43.0367 35.0572C41.9643 34.3407 40.7036 33.9583 39.4139 33.9583H39.4008ZM39.4008 7.87485C40.1746 7.87485 40.9311 8.10431 41.5745 8.53422C42.2179 8.96414 42.7194 9.57519 43.0155 10.2901C43.3116 11.005 43.3891 11.7917 43.2382 12.5507C43.0872 13.3096 42.7146 14.0068 42.1674 14.5539C41.6202 15.1011 40.9231 15.4737 40.1641 15.6247C39.4052 15.7757 38.6185 15.6982 37.9036 15.4021C37.1887 15.1059 36.5776 14.6044 36.1477 13.961C35.7178 13.3176 35.4883 12.5612 35.4883 11.7874C35.4883 10.7497 35.9005 9.75453 36.6343 9.02079C37.368 8.28706 38.3632 7.87485 39.4008 7.87485ZM12.6262 30.0458C11.8524 30.0458 11.0959 29.8163 10.4525 29.3864C9.80909 28.9565 9.30762 28.3454 9.01149 27.6305C8.71536 26.9156 8.63788 26.1289 8.78884 25.37C8.93981 24.611 9.31244 23.9139 9.85962 23.3667C10.4068 22.8195 11.1039 22.4469 11.8629 22.2959C12.6218 22.1449 13.4085 22.2224 14.1234 22.5186C14.8384 22.8147 15.4494 23.3162 15.8793 23.9596C16.3092 24.603 16.5387 25.3594 16.5387 26.1332C16.5387 27.1709 16.1265 28.1661 15.3927 28.8998C14.659 29.6336 13.6638 30.0458 12.6262 30.0458ZM39.4008 44.3917C38.627 44.3917 37.8706 44.1622 37.2271 43.7323C36.5837 43.3024 36.0823 42.6913 35.7861 41.9764C35.49 41.2615 35.4125 40.4748 35.5635 39.7158C35.7145 38.9569 36.0871 38.2597 36.6343 37.7126C37.1814 37.1654 37.8786 36.7928 38.6375 36.6418C39.3965 36.4908 40.1832 36.5683 40.8981 36.8644C41.613 37.1606 42.224 37.6621 42.654 38.3055C43.0839 38.9489 43.3133 39.7053 43.3133 40.4791C43.3133 41.5168 42.9011 42.512 42.1674 43.2457C41.4337 43.9794 40.4385 44.3917 39.4008 44.3917Z" fill="#4285F4"/>
</g>
<defs>
<clipPath id="clip0_332_2714">
<rect width="48" height="48" fill="white" transform="translate(2 2)"/>
</clipPath>
</defs>
</svg>
