<svg width="50" height="52" viewBox="0 0 50 52" fill="none" xmlns="http://www.w3.org/2000/svg">
<path d="M34.1491 30.8333L9.30859 6L9.72376 9.59702C10.0697 12.4331 11.3844 15.0617 13.391 17.1369L30.6894 34.3612C29.0288 37.6123 29.7207 41.8319 32.9036 44.3221C35.8098 46.6049 39.9614 46.5357 42.7983 44.253C46.604 41.2093 46.8116 35.6755 43.4903 32.2859C40.9301 29.7957 37.1936 29.3115 34.1491 30.8333ZM40.5149 40.6559C38.9927 42.1778 36.6401 42.1778 35.1178 40.6559C33.5956 39.1341 33.5956 36.7822 35.1178 35.2604C36.6401 33.7386 38.9927 33.7386 40.5149 35.2604C41.968 36.7822 41.968 39.2033 40.5149 40.6559Z" stroke="#4285F4" stroke-width="1.70798" stroke-miterlimit="10" stroke-linecap="round" stroke-linejoin="round"/>
<path d="M28.6848 24.8152L36.3653 17.0678C38.372 15.0617 39.6866 12.364 40.0326 9.52785L40.4478 6L25.156 21.5641M21.1427 25.3686L15.6072 30.8333C12.6319 29.3115 8.82626 29.7957 6.33529 32.286C3.22157 35.3988 3.22157 40.5176 6.33529 43.6304C9.449 46.7432 14.5693 46.7432 17.683 43.6304C20.174 41.1402 20.6584 37.3356 19.1361 34.3612L24.81 28.6889M9.31061 35.2604C10.8329 33.7386 13.1855 33.7386 14.7077 35.2604C16.23 36.7822 16.23 39.1341 14.7077 40.656C13.1855 42.1778 10.8329 42.1778 9.31061 40.656C7.78835 39.2033 7.78835 36.7822 9.31061 35.2604Z" stroke="#4285F4" stroke-width="1.70798" stroke-miterlimit="10" stroke-linecap="round" stroke-linejoin="round"/>
</svg>
