<svg width="18" height="16" viewBox="0 0 18 16" fill="none" xmlns="http://www.w3.org/2000/svg">
<g clip-path="url(#clip0_47_9134)">
<g clip-path="url(#clip1_47_9134)">
<path d="M13.7156 13.8827C13.6267 13.7755 13.5007 13.6737 13.3405 13.5799C13.058 13.4148 12.6614 13.2685 12.1624 13.1447C11.6125 13.0086 10.9635 12.9067 10.2566 12.8424C10.1344 13.0305 10.017 13.2111 9.9066 13.381C10.7009 13.4395 11.4271 13.5456 12.0268 13.694C12.4669 13.8028 12.8227 13.9325 13.0553 14.0681C13.2644 14.1903 13.3201 14.2863 13.3201 14.3195C13.3201 14.3527 13.2649 14.4487 13.0553 14.5709C12.8227 14.707 12.4669 14.8362 12.0268 14.945C11.0761 15.1803 9.80691 15.3094 8.45361 15.3094C7.10032 15.3094 5.83171 15.1797 4.88038 14.945C4.43983 14.8362 4.08449 14.7065 3.85188 14.5709C3.64286 14.4487 3.58712 14.3527 3.58712 14.3195C3.58712 14.2863 3.64232 14.1903 3.85188 14.0681C4.08449 13.932 4.44036 13.8028 4.88038 13.694C5.47798 13.5461 6.20045 13.4405 6.99098 13.3821L6.63779 12.844C5.93568 12.9083 5.29146 13.0102 4.74479 13.1452C4.24581 13.2685 3.8492 13.4148 3.56675 13.5804C3.4065 13.6742 3.28055 13.776 3.19158 13.8832C3.07903 14.0194 3.02222 14.1662 3.02222 14.32C3.02222 14.4739 3.07903 14.6213 3.19158 14.7568C3.28055 14.864 3.4065 14.9659 3.56675 15.0597C3.8492 15.2247 4.24581 15.3711 4.74479 15.4949C5.73899 15.7409 7.05584 15.8759 8.45361 15.8759C9.85139 15.8759 11.1682 15.7403 12.1624 15.4949C12.6614 15.3716 13.058 15.2253 13.3405 15.0597C13.5007 14.9659 13.6267 14.864 13.7156 14.7568C13.8282 14.6207 13.885 14.4739 13.885 14.32C13.885 14.1662 13.8282 14.0183 13.7156 13.8827Z" fill="#333333"/>
<path d="M10.5228 1.34965C9.9767 1.07953 9.39197 0.92142 8.78526 0.879616C8.67914 0.872112 8.57142 0.868896 8.46583 0.868896C8.40902 0.868896 8.35167 0.869968 8.29486 0.872112C8.34363 0.87372 8.39294 0.8764 8.44118 0.879616C9.04788 0.920884 9.63208 1.07899 10.1782 1.34965C11.9013 2.2029 12.94 4.13985 12.8226 5.98408C12.6747 8.30853 10.9554 10.1061 9.71086 11.9734C9.23922 12.6809 8.75043 13.3814 8.29004 14.0969C8.46583 14.3606 8.46637 14.3606 8.46637 14.3606C8.97446 13.5534 9.52542 12.7682 10.0549 11.9734C11.2994 10.1061 13.0188 8.30853 13.1667 5.98408C13.2846 4.13985 12.2459 2.2029 10.5228 1.34965Z" fill="#515151"/>
<path d="M10.1786 1.34973C9.63249 1.07961 9.04776 0.921501 8.44105 0.879696C8.39228 0.87648 8.34351 0.8738 8.29473 0.872192C8.01496 0.882376 7.7368 0.918285 7.46454 0.978848C7.14618 1.04959 6.83318 1.15571 6.53518 1.29292C6.24309 1.42798 5.96225 1.59413 5.70123 1.78761C5.44237 1.97948 5.20119 2.19869 4.98466 2.43933C4.76867 2.67944 4.57519 2.94206 4.41011 3.22076C4.24289 3.50267 4.10301 3.80281 3.99421 4.11259C3.58313 5.28688 3.66781 6.53673 4.13945 7.67993C4.15768 7.72388 4.17643 7.76729 4.19573 7.81124C4.83084 9.24814 5.90865 10.5296 6.78173 11.8368C7.1778 12.4301 7.57387 13.0234 7.96994 13.6162C8.11519 13.8338 8.21809 13.9876 8.29098 14.097C8.75137 13.3814 9.23963 12.6815 9.71181 11.9735C10.9563 10.1062 12.6757 8.30861 12.8236 5.98416C12.9404 4.13993 11.9017 2.20298 10.1786 1.34973ZM8.45338 7.9329C7.07757 7.9329 5.96171 6.81757 5.96171 5.44123C5.96171 4.06489 7.07704 2.94957 8.45338 2.94957C9.82972 2.94957 10.945 4.06489 10.945 5.44123C10.945 6.81757 9.82918 7.9329 8.45338 7.9329Z" fill="#333333"/>
<path d="M8.04883 7.19667V3.78918H9.08126C9.84054 3.78918 10.3822 4.04845 10.3822 4.81699C10.3822 5.56237 9.84054 5.90497 9.09978 5.90497H8.58588V7.19667H8.04883ZM8.58588 5.47441H9.04885C9.59516 5.47441 9.85442 5.26607 9.85442 4.81699C9.85442 4.3679 9.57201 4.21975 9.03033 4.21975H8.58588V5.47441Z" fill="#333333"/>
<path d="M6.85156 7.19667V3.78918H7.38861V7.19667H6.85156Z" fill="#333333"/>
</g>
</g>
<defs>
<clipPath id="clip0_47_9134">
<rect width="17.399" height="15" fill="white" transform="translate(0 0.868896)"/>
</clipPath>
<clipPath id="clip1_47_9134">
<rect width="10.9628" height="15" fill="white" transform="translate(3.02173 0.868896)"/>
</clipPath>
</defs>
</svg>
