<svg width="22" height="16" viewBox="0 0 22 16" fill="none" xmlns="http://www.w3.org/2000/svg">
<g clip-path="url(#clip0_47_9099)">
<path d="M10.6104 13.2532C13.3249 13.2532 15.5254 11.0527 15.5254 8.33816C15.5254 5.62364 13.3249 3.4231 10.6104 3.4231C7.89586 3.4231 5.69531 5.62364 5.69531 8.33816C5.69531 11.0527 7.89586 13.2532 10.6104 13.2532Z" stroke="#333333" stroke-width="0.0498339" stroke-miterlimit="10"/>
<path d="M10.6104 3.4231C7.8965 3.4231 5.69531 5.62428 5.69531 8.33816C5.69531 11.052 7.8965 13.2532 10.6104 13.2532C13.3243 13.2532 15.5254 11.052 15.5254 8.33816C15.5254 5.62428 13.3243 3.4231 10.6104 3.4231ZM10.6104 12.2985C8.42454 12.2985 6.65315 10.5271 6.65315 8.34123C6.65315 6.15539 8.42454 4.384 10.6104 4.384C12.7962 4.384 14.5676 6.15539 14.5676 8.34123C14.5676 10.524 12.7962 12.2985 10.6104 12.2985Z" fill="#333333"/>
<path d="M13.312 8.78336C11.4547 8.78336 9.95038 7.27906 9.95038 5.42171C9.95038 5.29277 9.95652 5.16383 9.97187 5.03796C8.42152 5.33575 7.24878 6.7019 7.24878 8.33821C7.24878 10.1956 8.75308 11.6999 10.6104 11.6999C12.3358 11.6999 13.7602 10.3982 13.9506 8.72196C13.7418 8.76187 13.53 8.78336 13.312 8.78336Z" fill="#333333"/>
<path d="M10.6965 2.81527H10.5123C10.4631 2.81527 10.4202 2.77536 10.4202 2.72317V0.960996C10.4202 0.911876 10.4601 0.868896 10.5123 0.868896H10.6965C10.7456 0.868896 10.7886 0.908806 10.7886 0.960996V2.72317C10.7886 2.77536 10.7456 2.81527 10.6965 2.81527Z" fill="#333333"/>
<path d="M6.7392 4.37174L6.61026 4.50068C6.57342 4.53752 6.51509 4.53752 6.48132 4.50068L5.23491 3.25426C5.19807 3.21742 5.19807 3.15909 5.23491 3.12532L5.36385 2.99638C5.40069 2.95954 5.45902 2.95954 5.49279 2.99638L6.7392 4.2428C6.77604 4.27964 6.77604 4.33797 6.7392 4.37174Z" fill="#333333"/>
<path d="M5.04452 8.27069V8.45489C5.04452 8.50401 5.00461 8.54699 4.95242 8.54699H3.19024C3.14112 8.54699 3.09814 8.50708 3.09814 8.45489V8.27069C3.09814 8.22157 3.13805 8.17859 3.19024 8.17859H4.95242C5.00461 8.17859 5.04452 8.22157 5.04452 8.27069Z" fill="#333333"/>
<path d="M6.60099 12.2278L6.72993 12.3568C6.76677 12.3936 6.76677 12.4519 6.72993 12.4857L5.48351 13.7321C5.44667 13.769 5.38834 13.769 5.35457 13.7321L5.22563 13.6032C5.18879 13.5663 5.18879 13.508 5.22563 13.4742L6.47205 12.2278C6.50889 12.191 6.56722 12.191 6.60099 12.2278Z" fill="#333333"/>
<path d="M10.4998 13.9225H10.684C10.7331 13.9225 10.7761 13.9624 10.7761 14.0146V15.7768C10.7761 15.8259 10.7362 15.8689 10.684 15.8689H10.4998C10.4507 15.8689 10.4077 15.829 10.4077 15.7768V14.0146C10.4077 13.9624 10.4507 13.9225 10.4998 13.9225Z" fill="#333333"/>
<path d="M14.4571 12.366L14.586 12.2371C14.6229 12.2003 14.6812 12.2003 14.715 12.2371L15.9614 13.4835C15.9982 13.5204 15.9982 13.5787 15.9614 13.6125L15.8324 13.7414C15.7956 13.7782 15.7373 13.7782 15.7035 13.7414L14.4571 12.495C14.4202 12.4581 14.4202 12.3998 14.4571 12.366Z" fill="#333333"/>
<path d="M16.1519 8.4671V8.2829C16.1519 8.23378 16.1918 8.1908 16.244 8.1908H18.0061C18.0553 8.1908 18.0982 8.23071 18.0982 8.2829V8.4671C18.0982 8.51622 18.0583 8.5592 18.0061 8.5592H16.244C16.1918 8.5592 16.1519 8.51622 16.1519 8.4671Z" fill="#333333"/>
<path d="M14.5953 4.50996L14.4664 4.38102C14.4295 4.34418 14.4295 4.28585 14.4664 4.25208L15.7128 3.00566C15.7496 2.96882 15.8079 2.96882 15.8417 3.00566L15.9706 3.1346C16.0075 3.17144 16.0075 3.22977 15.9706 3.26354L14.7242 4.50996C14.6874 4.5468 14.6291 4.5468 14.5953 4.50996Z" fill="#333333"/>
</g>
<defs>
<clipPath id="clip0_47_9099">
<rect width="22" height="15" fill="white" transform="translate(0 0.868896)"/>
</clipPath>
</defs>
</svg>
