<svg width="22" height="16" viewBox="0 0 22 16" fill="none" xmlns="http://www.w3.org/2000/svg">
<g clip-path="url(#clip0_47_9117)">
<path d="M13.1401 15.3178H-0.398438V1.31763H20.2684V5.62536H18.9864V2.59969H0.883625V14.0357H13.1401V15.3178Z" fill="#333333"/>
<path d="M19.6021 3.31775H0.217285V4.59981H19.6021V3.31775Z" fill="#333333"/>
<path d="M13.4482 5.93311H0.217285V7.21517H13.4482V5.93311Z" fill="#333333"/>
<path d="M5.14044 9.36877H2.98657V10.6508H5.14044V9.36877Z" fill="#333333"/>
<path d="M9.0379 9.36877H6.88403V10.6508H9.0379V9.36877Z" fill="#333333"/>
<path d="M12.9354 9.36877H10.7815V10.6508H12.9354V9.36877Z" fill="#333333"/>
<path d="M15.9607 10.1893C15.9607 10.138 15.9607 10.0355 15.9607 9.98418V9.26622C15.9607 7.98416 16.9863 6.90723 18.3197 6.90723C19.6018 6.90723 20.6787 7.93288 20.6787 9.26622V9.98418H19.653V9.26622C19.653 8.54827 19.0889 7.93288 18.3197 7.93288C17.6017 7.93288 16.9863 8.49698 16.9863 9.26622V9.98418C16.9863 10.0355 16.9863 10.0867 16.9863 10.0867L15.9607 10.1893Z" fill="#333333"/>
<path d="M18.8838 11.6252H17.8582V13.1124H18.8838V11.6252Z" fill="#333333"/>
<path d="M21.5505 15.4201H15.0376V9.47131H21.6018V15.4201H21.5505ZM16.0632 14.3944H20.5761V10.5482H16.0632V14.3944Z" fill="#333333"/>
</g>
<defs>
<clipPath id="clip0_47_9117">
<rect width="22" height="15" fill="white" transform="translate(0 0.868896)"/>
</clipPath>
</defs>
</svg>
