<svg width="30" height="30" viewBox="0 0 30 30" fill="none" xmlns="http://www.w3.org/2000/svg">
<path d="M14.9953 4C8.03097 4 2.38374 8.32249 2.38374 13.6566C2.38374 17.1054 4.74307 20.1266 8.29628 21.8418L7.01713 26.2792C7.01713 26.2792 6.99344 26.4861 7.13083 26.5643C7.26822 26.6425 7.43404 26.5827 7.43404 26.5827C7.832 26.5275 12.0295 23.6627 12.7638 23.1661C13.4887 23.2673 14.242 23.3178 15.0047 23.3178C21.969 23.3178 27.6163 18.9954 27.6163 13.6612C27.6163 8.32709 21.9595 4 14.9953 4Z" fill="#371C1D"/>
<path d="M8.02132 17.0224C7.61862 17.0224 7.29173 16.7189 7.29173 16.3464V12.1481H6.1547C5.76148 12.1481 5.44406 11.84 5.44406 11.4583C5.44406 11.0767 5.76622 10.7686 6.1547 10.7686H9.8832C10.2764 10.7686 10.5938 11.0767 10.5938 11.4583C10.5938 11.84 10.2717 12.1481 9.8832 12.1481H8.74618V16.3464C8.74618 16.7143 8.41454 17.0224 8.01658 17.0224H8.02132ZM14.4029 17.0132C14.0997 17.0132 13.8675 16.8936 13.7965 16.7005L13.4364 15.7808H11.2192L10.8592 16.7005C10.7881 16.8936 10.5559 17.0132 10.2527 17.0132C10.0917 17.0132 9.93532 16.981 9.78845 16.9212C9.58947 16.8293 9.39523 16.5855 9.6179 15.9188L11.3566 11.4721C11.4798 11.1318 11.854 10.7824 12.3278 10.7732C12.8016 10.764 13.1806 11.1318 13.299 11.4721L15.0377 15.9188C15.2604 16.5855 15.0661 16.8385 14.8672 16.9212C14.725 16.9856 14.564 17.0132 14.4029 17.0132ZM13.0527 14.5301L12.3278 12.5252L11.603 14.5301H13.0527ZM16.2079 16.9212C15.8289 16.9212 15.5115 16.6315 15.5115 16.2774V11.4721C15.5115 11.0813 15.8431 10.764 16.2553 10.764C16.6675 10.764 16.9991 11.0859 16.9991 11.4721V15.6199H18.5436C18.9226 15.6199 19.24 15.9096 19.24 16.2637C19.24 16.6177 18.9273 16.9074 18.5436 16.9074L16.2079 16.9212ZM19.5195 16.305V11.4767C19.5195 11.0859 19.8511 10.7686 20.2491 10.7686C20.6471 10.7686 20.9787 11.0905 20.9787 11.4767V12.9942L23.0159 11.0169C23.2401 10.7992 23.664 10.8183 23.9207 11.0675C24.1619 11.3015 24.2246 11.6971 23.9729 11.9458L22.3052 13.5552L24.096 15.8544C24.3367 16.1534 24.2783 16.619 23.9539 16.8385C23.6341 17.0684 23.1643 16.9917 22.9353 16.7005L21.2298 14.5071L20.9787 14.7508V16.2912C20.9787 17.2088 19.5195 17.2441 19.5195 16.305Z" fill="#F7E600"/>
</svg>
