<svg width="116" height="28" viewBox="0 0 116 28" fill="none" xmlns="http://www.w3.org/2000/svg">
<path d="M10.6764 3.50116L8.89617 5.25174L5.34054 8.74826L8.89617 12.2494L14.2367 17.5012L17.7971 14L12.4565 8.74826L14.2367 7.00232L21.3574 14L14.2367 21.0023L3.56036 10.4988L0 14L10.6764 24.4988L14.2367 28L17.7971 24.4988L24.9131 17.5012L28.4734 14L24.9131 10.4988L17.7971 3.50116L14.2367 0L10.6764 3.50116Z" fill="#F44336"/>
<path d="M37.9614 4.752L43.2174 19.536L48.4974 4.752H52.2654L45.3054 23.64H41.1534L34.1934 4.752H37.9614ZM64.8796 4.752H68.6716V23.64H65.4556L64.9996 21.792C64.7116 22.16 64.3596 22.488 63.9436 22.776C63.5276 23.08 63.0716 23.328 62.5756 23.52C62.0956 23.728 61.5916 23.88 61.0636 23.976C60.5356 24.088 60.0156 24.136 59.5036 24.12C58.5276 24.104 57.5996 23.904 56.7196 23.52C55.8556 23.136 55.0876 22.616 54.4156 21.96C53.7596 21.304 53.2396 20.528 52.8556 19.632C52.4716 18.72 52.2796 17.736 52.2796 16.68C52.2796 15.592 52.4796 14.592 52.8796 13.68C53.2796 12.752 53.8156 11.96 54.4876 11.304C55.1596 10.632 55.9276 10.112 56.7916 9.744C57.6556 9.36 58.5516 9.168 59.4796 9.168C60.6156 9.168 61.6476 9.36 62.5756 9.744C63.5036 10.112 64.2716 10.632 64.8796 11.304V4.752ZM60.2476 21.192C60.8236 21.192 61.3676 21.088 61.8796 20.88C62.3916 20.672 62.8316 20.376 63.1996 19.992C63.5836 19.592 63.8796 19.112 64.0876 18.552C64.3116 17.992 64.4236 17.368 64.4236 16.68C64.4236 15.96 64.3116 15.32 64.0876 14.76C63.8796 14.2 63.5836 13.728 63.1996 13.344C62.8316 12.944 62.3916 12.64 61.8796 12.432C61.3676 12.224 60.8236 12.12 60.2476 12.12C59.6716 12.12 59.1276 12.224 58.6156 12.432C58.1036 12.64 57.6556 12.944 57.2716 13.344C56.9036 13.728 56.6076 14.2 56.3836 14.76C56.1756 15.32 56.0716 15.96 56.0716 16.68C56.0716 17.368 56.1756 17.992 56.3836 18.552C56.6076 19.112 56.9036 19.592 57.2716 19.992C57.6556 20.376 58.1036 20.672 58.6156 20.88C59.1276 21.088 59.6716 21.192 60.2476 21.192ZM73.9537 19.032C74.2897 19.8 74.8017 20.392 75.4897 20.808C76.1777 21.224 77.0337 21.432 78.0577 21.432C79.0177 21.432 79.8897 21.272 80.6737 20.952C81.4737 20.632 82.1937 20.088 82.8337 19.32L85.2577 21.168C84.4257 22.176 83.4257 22.96 82.2577 23.52C81.0897 24.08 79.8177 24.36 78.4417 24.36C77.2577 24.36 76.1537 24.176 75.1297 23.808C74.1057 23.456 73.2097 22.944 72.4417 22.272C71.6897 21.616 71.0897 20.816 70.6417 19.872C70.2097 18.912 69.9937 17.84 69.9937 16.656C69.9937 15.504 70.2017 14.456 70.6177 13.512C71.0337 12.552 71.6017 11.736 72.3217 11.064C73.0417 10.376 73.8897 9.848 74.8657 9.48C75.8577 9.096 76.9297 8.904 78.0817 8.904C79.2017 8.904 80.2257 9.088 81.1537 9.456C82.0977 9.824 82.9137 10.336 83.6017 10.992C84.2897 11.632 84.8337 12.408 85.2337 13.32C85.6497 14.216 85.8817 15.2 85.9297 16.272L73.9537 19.032ZM78.2497 11.832C76.8257 11.832 75.6977 12.232 74.8657 13.032C74.0497 13.816 73.6017 14.888 73.5217 16.248L82.1617 14.184C81.7457 13.352 81.2017 12.752 80.5297 12.384C79.8577 12.016 79.0977 11.832 78.2497 11.832ZM96.8559 13.2C96.2479 12.768 95.5759 12.44 94.8399 12.216C94.1199 11.976 93.4559 11.856 92.8479 11.856C91.2479 11.856 90.4479 12.32 90.4479 13.248C90.4479 13.616 90.5839 13.936 90.8559 14.208C91.1279 14.464 91.6479 14.68 92.4159 14.856C94.5439 15.352 96.1039 15.992 97.0959 16.776C98.0879 17.56 98.5839 18.568 98.5839 19.8C98.5839 20.568 98.4319 21.24 98.1279 21.816C97.8399 22.392 97.4319 22.864 96.9039 23.232C96.3759 23.616 95.7359 23.896 94.9839 24.072C94.2479 24.264 93.4239 24.36 92.5119 24.36C91.2639 24.36 90.1279 24.184 89.1039 23.832C88.0959 23.496 87.1439 23.016 86.2479 22.392L87.6159 19.728C88.2239 20.24 88.9039 20.648 89.6559 20.952C90.4079 21.256 91.2159 21.408 92.0799 21.408C93.1199 21.408 93.8319 21.288 94.2159 21.048C94.5999 20.808 94.7919 20.408 94.7919 19.848C94.7919 19.368 94.5679 18.976 94.1199 18.672C93.6879 18.368 93.0559 18.104 92.2239 17.88C91.2159 17.608 90.3599 17.328 89.6559 17.04C88.9519 16.752 88.3759 16.432 87.9279 16.08C87.4959 15.712 87.1759 15.296 86.9679 14.832C86.7599 14.352 86.6559 13.792 86.6559 13.152C86.6559 12.512 86.7919 11.936 87.0639 11.424C87.3359 10.896 87.7199 10.448 88.2159 10.08C88.7279 9.712 89.3359 9.432 90.0399 9.24C90.7439 9.032 91.5279 8.928 92.3919 8.928C93.0639 8.928 93.6639 8.976 94.1919 9.072C94.7359 9.152 95.2319 9.272 95.6799 9.432C96.1439 9.592 96.5679 9.784 96.9519 10.008C97.3359 10.216 97.7039 10.448 98.0559 10.704L96.8559 13.2ZM109.64 23.64L103.952 17.712V23.64H100.16V4.752H103.952V14.832L109.4 9.648H113.984L107.072 16.176L114.224 23.64H109.64Z" fill="#111111"/>
</svg>
