<svg width="112" height="111" viewBox="0 0 112 111" fill="none" xmlns="http://www.w3.org/2000/svg">
<circle cx="56.0017" cy="55.3846" r="54.4602" fill="white" stroke="#74A8FF" stroke-width="1.84872"/>
<path d="M106.038 55.4796C106.038 82.8181 83.6445 104.997 56 104.997C28.3555 104.997 5.96209 82.8181 5.96209 55.4796C5.96209 28.1411 28.3555 5.96209 56 5.96209C83.6445 5.96209 106.038 28.1411 106.038 55.4796Z" fill="#4285F4" stroke="#87B4FF" stroke-width="1.92418"/>
<path d="M44.2852 37.3667L57.2852 24.3667L70.2852 37.3667" stroke="white" stroke-width="3.93898" stroke-linecap="round" stroke-linejoin="round"/>
<path d="M36.888 77.4136V59.5216H30.868V56.7776H46.24V59.5216H40.192V77.4136H36.888ZM55.3708 77.8056C53.6162 77.8056 52.0575 77.3669 50.6948 76.4896C49.3508 75.6122 48.2962 74.3709 47.5308 72.7656C46.7655 71.1416 46.3828 69.2282 46.3828 67.0256C46.3828 64.8042 46.7655 62.9096 47.5308 61.3416C48.2962 59.7549 49.3508 58.5416 50.6948 57.7016C52.0575 56.8429 53.6162 56.4136 55.3708 56.4136C57.1442 56.4136 58.7028 56.8429 60.0468 57.7016C61.3908 58.5416 62.4455 59.7549 63.2108 61.3416C63.9762 62.9096 64.3588 64.8042 64.3588 67.0256C64.3588 69.2282 63.9762 71.1416 63.2108 72.7656C62.4455 74.3709 61.3908 75.6122 60.0468 76.4896C58.7028 77.3669 57.1442 77.8056 55.3708 77.8056ZM55.3708 74.9496C56.5095 74.9496 57.4988 74.6229 58.3388 73.9696C59.1975 73.3162 59.8602 72.4016 60.3268 71.2256C60.7935 70.0309 61.0268 68.6309 61.0268 67.0256C61.0268 65.4202 60.7935 64.0389 60.3268 62.8816C59.8602 61.7056 59.1975 60.8096 58.3388 60.1936C57.4988 59.5589 56.5095 59.2416 55.3708 59.2416C54.2322 59.2416 53.2335 59.5589 52.3748 60.1936C51.5348 60.8096 50.8815 61.7056 50.4148 62.8816C49.9668 64.0389 49.7428 65.4202 49.7428 67.0256C49.7428 68.6309 49.9668 70.0309 50.4148 71.2256C50.8815 72.4016 51.5348 73.3162 52.3748 73.9696C53.2335 74.6229 54.2322 74.9496 55.3708 74.9496ZM67.2402 77.4136V56.7776H73.4842C75.0336 56.7776 76.3962 56.9829 77.5722 57.3936C78.7482 57.7856 79.6722 58.4389 80.3442 59.3536C81.0349 60.2496 81.3802 61.4816 81.3802 63.0496C81.3802 64.5429 81.0442 65.7749 80.3722 66.7456C79.7002 67.6976 78.7762 68.4162 77.6002 68.9016C76.4429 69.3682 75.1082 69.6016 73.5962 69.6016H70.4882V77.4136H67.2402ZM70.4882 66.9696H73.3162C74.9402 66.9696 76.1536 66.6522 76.9562 66.0176C77.7589 65.3829 78.1602 64.3936 78.1602 63.0496C78.1602 61.6682 77.7402 60.7162 76.9002 60.1936C76.0602 59.6709 74.8189 59.4096 73.1762 59.4096H70.4882V66.9696Z" fill="white"/>
</svg>
