<svg width="36" height="35" viewBox="0 0 36 35" fill="none" xmlns="http://www.w3.org/2000/svg">
<path d="M24.662 32.0833C25.0493 32.0855 25.4332 32.0106 25.7913 31.8629C26.1493 31.7151 26.4744 31.4976 26.7474 31.2229L30.6995 27.2708C30.9711 26.9976 31.1236 26.6279 31.1236 26.2427C31.1236 25.8574 30.9711 25.4878 30.6995 25.2145L24.8662 19.3812C24.593 19.1096 24.2233 18.9571 23.8381 18.9571C23.4528 18.9571 23.0832 19.1096 22.8099 19.3812L20.4766 21.7C18.8611 21.2692 17.365 20.4763 16.1016 19.3812C15.0095 18.1158 14.2169 16.6204 13.7829 15.0062L16.1016 12.6729C16.3732 12.3996 16.5257 12.03 16.5257 11.6448C16.5257 11.2595 16.3732 10.8899 16.1016 10.6166L10.2683 4.7833C9.99504 4.51168 9.62542 4.35922 9.24015 4.35922C8.85488 4.35922 8.48526 4.51168 8.21203 4.7833L4.27453 8.74996C3.99982 9.02302 3.78226 9.34806 3.63453 9.70611C3.48681 10.0642 3.41187 10.4481 3.41411 10.8354C3.54642 16.4387 5.78547 21.7864 9.68494 25.8125C13.711 29.7119 19.0587 31.951 24.662 32.0833ZM9.24744 7.88955L13.0245 11.6666L11.1433 13.5479C10.9651 13.7148 10.8317 13.9237 10.7552 14.1556C10.6788 14.3875 10.6618 14.6348 10.7058 14.875C11.2509 17.3109 12.4049 19.5688 14.0599 21.4375C15.9271 23.0946 18.1856 24.249 20.6224 24.7916C20.859 24.8411 21.104 24.831 21.3357 24.7622C21.5673 24.6935 21.7783 24.5683 21.9495 24.3979L23.8308 22.4729L27.6079 26.25L24.6912 29.1666C19.855 29.0421 15.2405 27.112 11.7558 23.7562C8.39127 20.2701 6.45562 15.6495 6.33078 10.8062L9.24744 7.88955ZM29.6641 16.0416H32.5808C32.6186 14.3077 32.3049 12.584 31.6587 10.9745C31.0125 9.36502 30.0471 7.90303 28.8208 6.67664C27.5944 5.45026 26.1324 4.48487 24.5229 3.83866C22.9134 3.19246 21.1897 2.87881 19.4558 2.91663V5.8333C20.809 5.78649 22.1573 6.01852 23.417 6.51497C24.6767 7.01142 25.8209 7.76168 26.7783 8.7191C27.7357 9.67653 28.486 10.8207 28.9824 12.0804C29.4789 13.3401 29.7109 14.6884 29.6641 16.0416Z" fill="black"/>
<path d="M19.4609 11.6672C22.5234 11.6672 23.8359 12.9797 23.8359 16.0422H26.7526C26.7526 11.3463 24.1568 8.75049 19.4609 8.75049V11.6672Z" fill="black"/>
</svg>
