<svg width="38" height="51" viewBox="0 0 38 51" fill="none" xmlns="http://www.w3.org/2000/svg">
<path d="M18.9875 7.77246C8.58427 7.77246 0.148438 14.4652 0.148438 22.7244C0.148438 28.0644 3.6728 32.7422 8.98058 35.3979L7.06978 42.2687C7.06978 42.2687 7.0344 42.5891 7.23963 42.7101C7.44486 42.8312 7.69256 42.7386 7.69256 42.7386C8.28703 42.6532 14.5573 38.2174 15.6542 37.4485C16.737 37.6051 17.8623 37.6834 19.0017 37.6834C29.4049 37.6834 37.8407 30.9907 37.8407 22.7315C37.8407 14.4724 29.3908 7.77246 18.9875 7.77246Z" fill="black"/>
<path d="M8.56085 27.9373C7.9593 27.9373 7.47098 27.4674 7.47098 26.8907V20.3902H5.77249C5.1851 20.3902 4.71094 19.9131 4.71094 19.3222C4.71094 18.7312 5.19218 18.2542 5.77249 18.2542H11.3421C11.9295 18.2542 12.4037 18.7312 12.4037 19.3222C12.4037 19.9131 11.9224 20.3902 11.3421 20.3902H9.64363V26.8907C9.64363 27.4603 9.14824 27.9373 8.55377 27.9373H8.56085ZM18.0936 27.9231C17.6407 27.9231 17.2939 27.738 17.1878 27.4389L16.6499 26.015H13.3378L12.8 27.4389C12.6938 27.738 12.3471 27.9231 11.8941 27.9231C11.6535 27.9231 11.42 27.8733 11.2006 27.7807C10.9033 27.6383 10.6132 27.2609 10.9458 26.2286L13.5431 19.3435C13.7271 18.8167 14.2862 18.2756 14.9939 18.2613C15.7016 18.2471 16.2677 18.8167 16.4447 19.3435L19.0419 26.2286C19.3746 27.2609 19.0844 27.6525 18.7872 27.7807C18.5749 27.8804 18.3342 27.9231 18.0936 27.9231ZM16.0767 24.0783L14.9939 20.974L13.9111 24.0783H16.0767ZM20.79 27.7807C20.2238 27.7807 19.7496 27.3321 19.7496 26.7839V19.3435C19.7496 18.7383 20.245 18.2471 20.8607 18.2471C21.4764 18.2471 21.9718 18.7455 21.9718 19.3435V25.7658H24.2789C24.8451 25.7658 25.3193 26.2143 25.3193 26.7626C25.3193 27.3108 24.8522 27.7593 24.2789 27.7593L20.79 27.7807ZM25.7368 26.8266V19.3507C25.7368 18.7455 26.2322 18.2542 26.8267 18.2542C27.4212 18.2542 27.9165 18.7526 27.9165 19.3507V21.7003L30.9597 18.6387C31.2946 18.3017 31.9279 18.3312 32.3114 18.717C32.6716 19.0794 32.7652 19.6919 32.3892 20.0769L29.8981 22.5689L32.5732 26.1289C32.9327 26.5918 32.8455 27.3128 32.3609 27.6525C31.8832 28.0085 31.1814 27.8899 30.8394 27.4389L28.2916 24.0427L27.9165 24.4201V26.8053C27.9165 28.226 25.7368 28.2807 25.7368 26.8266Z" fill="#FFE812"/>
</svg>
