<svg width="52" height="51" viewBox="0 0 52 51" fill="none" xmlns="http://www.w3.org/2000/svg">
<path fill-rule="evenodd" clip-rule="evenodd" d="M7.82812 9.99045C7.82812 8.41009 9.10147 7.13037 10.674 7.13037H17.9902C22.255 7.13037 25.7122 10.6048 25.7122 14.8923V33.8868C25.7122 35.4658 24.4388 36.7469 22.8663 36.7469H10.674C9.10147 36.7456 7.82812 35.4658 7.82812 33.8868V9.99045ZM10.674 9.58131C10.449 9.58131 10.2669 9.76431 10.2669 9.99045V33.8868C10.2669 34.1129 10.449 34.2959 10.674 34.2959H22.8676C23.0926 34.2959 23.2747 34.1129 23.2747 33.8868V14.8923C23.2747 11.959 20.9088 9.58131 17.9902 9.58131H10.674Z" fill="black"/>
<path fill-rule="evenodd" clip-rule="evenodd" d="M9.04814 28.4741C8.3744 28.4741 7.82812 29.0231 7.82812 29.7002V35.5211C7.82812 36.1982 8.3744 36.7472 9.04814 36.7472H24.4935C25.1672 36.7472 25.7135 36.1982 25.7135 35.5211C25.7135 31.6296 22.575 28.4741 18.7016 28.4741H9.04814Z" fill="black"/>
<path fill-rule="evenodd" clip-rule="evenodd" d="M41.1575 9.99045C41.1575 8.41009 39.8841 7.13037 38.3129 7.13037H30.9967C26.7319 7.13037 23.2734 10.6048 23.2734 14.8923V35.3168C23.2734 35.9939 23.8197 36.5429 24.4935 36.5429C25.1672 36.5429 25.7135 35.9939 25.7135 35.3168V14.8923C25.7135 11.959 28.0794 9.58131 30.998 9.58131H38.3142C38.5393 9.58131 38.7213 9.76431 38.7213 9.99045V23.8791C38.7213 24.5562 39.2676 25.1052 39.9414 25.1052C40.6151 25.1052 41.1614 24.5562 41.1614 23.8791V9.99045H41.1575Z" fill="black"/>
<path fill-rule="evenodd" clip-rule="evenodd" d="M35.1122 29.2083C32.6136 29.2083 30.5872 31.2448 30.5872 33.7559C30.5872 36.2683 32.6136 38.3035 35.1122 38.3035C37.612 38.3035 39.6371 36.267 39.6371 33.7559C39.6371 31.2448 37.612 29.2083 35.1122 29.2083ZM28.1484 33.7559C28.1484 29.8906 31.2661 26.7573 35.1122 26.7573C38.9582 26.7573 42.0759 29.8906 42.0759 33.7559C42.0759 37.6212 38.9582 40.7545 35.1122 40.7545C31.2661 40.7545 28.1484 37.6212 28.1484 33.7559Z" fill="black"/>
<path fill-rule="evenodd" clip-rule="evenodd" d="M38.5367 37.373C39.0128 36.8946 39.7854 36.8946 40.2614 37.373L44.6446 41.7781C45.1206 42.2566 45.1206 43.033 44.6446 43.5114C44.1686 43.9899 43.396 43.9899 42.9199 43.5114L38.5367 39.1063C38.0607 38.6279 38.0607 37.8527 38.5367 37.373Z" fill="black"/>
</svg>
