<svg width="40" height="40" viewBox="0 0 40 40" fill="none" xmlns="http://www.w3.org/2000/svg">
<path d="M30.0002 21.6665V18.3332H36.6668V21.6665H30.0002ZM32.0002 33.3332L26.6668 29.3332L28.6668 26.6665L34.0002 30.6665L32.0002 33.3332ZM28.6668 13.3332L26.6668 10.6665L32.0002 6.6665L34.0002 9.33317L28.6668 13.3332ZM8.3335 31.6665V24.9998H6.66683C5.75016 24.9998 4.96683 24.6665 4.31683 24.0165C3.66683 23.3665 3.3335 22.5832 3.3335 21.6665V18.3332C3.3335 17.4165 3.66683 16.6332 4.31683 15.9832C4.96683 15.3332 5.75016 14.9998 6.66683 14.9998H13.3335L21.6668 9.99984V29.9998L13.3335 24.9998H11.6668V31.6665H8.3335ZM18.3335 24.0832V15.9165L14.2502 18.3332H6.66683V21.6665H14.2502L18.3335 24.0832ZM23.3335 25.5832V14.4165C24.0835 15.0832 24.6835 15.8998 25.1502 16.8498C25.6002 17.8165 25.8335 18.8665 25.8335 19.9998C25.8335 21.1332 25.6002 22.1832 25.1502 23.1498C24.6835 24.0998 24.0835 24.9165 23.3335 25.5832Z" fill="#F44336"/>
</svg>
