<svg width="40" height="40" viewBox="0 0 40 40" fill="none" xmlns="http://www.w3.org/2000/svg">
<path d="M35.3502 13.5002C34.4668 11.4668 33.2835 9.71683 31.7835 8.21683C30.2835 6.71683 28.5168 5.5335 26.5002 4.65016C24.4668 3.76683 22.3002 3.3335 20.0002 3.3335C17.7002 3.3335 15.5335 3.76683 13.5002 4.65016C11.4668 5.51683 9.71683 6.71683 8.20016 8.20016C6.70016 9.70016 5.51683 11.4668 4.6335 13.4835C3.76683 15.5335 3.3335 17.7002 3.3335 20.0002C3.3335 22.3002 3.76683 24.4668 4.65016 26.5002C5.5335 28.5335 6.71683 30.2835 8.21683 31.7835C9.71683 33.2835 11.4835 34.4668 13.5002 35.3502C15.5335 36.2335 17.7002 36.6668 20.0002 36.6668C22.3002 36.6668 24.4668 36.2335 26.5002 35.3502C28.5335 34.4668 30.2835 33.2835 31.7835 31.7835C33.2835 30.2835 34.4668 28.5168 35.3502 26.5002C36.2335 24.4668 36.6668 22.3002 36.6668 20.0002C36.6668 17.7002 36.2335 15.5335 35.3502 13.5002ZM29.4502 29.4502C26.8835 32.0335 23.7168 33.3335 20.0002 33.3335C16.2835 33.3335 13.1168 32.0335 10.5502 29.4502C7.9835 26.8668 6.66683 23.7168 6.66683 20.0002C6.66683 16.2835 7.96683 13.1168 10.5502 10.5502C13.1335 7.9835 16.2835 6.66683 20.0002 6.66683C23.7168 6.66683 26.8835 7.96683 29.4502 10.5502C32.0168 13.1335 33.3335 16.2835 33.3335 20.0002C33.3335 23.7168 32.0335 26.8835 29.4502 29.4502Z" fill="#F44336"/>
<path d="M15.217 14.2002L16.967 22.0835L18.6003 14.2002H22.067L23.617 22.2169L25.4503 14.2002H28.9837L25.5337 27.8335H22.0003L20.3003 19.2335L18.6337 27.8335H15.1337L11.667 14.2002H15.217Z" fill="#F44336"/>
</svg>
