<svg width="40" height="40" viewBox="0 0 40 40" fill="none" xmlns="http://www.w3.org/2000/svg">
<path d="M12.4998 18.3332C10.8832 18.3332 9.5165 17.7665 8.3665 16.6165C7.2165 15.4665 6.6665 14.1165 6.6665 12.4998C6.6665 10.8832 7.23317 9.5165 8.3665 8.38317C9.49984 7.24984 10.8832 6.6665 12.4998 6.6665C14.1165 6.6665 15.4832 7.23317 16.6165 8.3665C17.7498 9.49984 18.3332 10.8832 18.3332 12.4998C18.3332 14.1165 17.7665 15.4832 16.6165 16.6165C15.4665 17.7498 14.1165 18.3332 12.4998 18.3332ZM12.4998 14.9998C13.1998 14.9998 13.7832 14.7498 14.2665 14.2665C14.7498 13.7832 14.9998 13.1998 14.9998 12.4998C14.9998 11.7998 14.7498 11.2165 14.2665 10.7332C13.7832 10.2498 13.1998 9.99984 12.4998 9.99984C11.7998 9.99984 11.2165 10.2498 10.7332 10.7332C10.2498 11.2165 9.99984 11.7998 9.99984 12.4998C9.99984 13.1998 10.2498 13.7832 10.7332 14.2665C11.2165 14.7498 11.7998 14.9998 12.4998 14.9998ZM27.4998 33.3332C25.8832 33.3332 24.5165 32.7665 23.3832 31.6332C22.2332 30.4832 21.6665 29.1165 21.6665 27.4998C21.6665 25.8832 22.2332 24.5165 23.3832 23.3832C24.5165 22.2332 25.8832 21.6665 27.4998 21.6665C29.1165 21.6665 30.4832 22.2332 31.6332 23.3832C32.7665 24.5165 33.3332 25.8832 33.3332 27.4998C33.3332 29.1165 32.7665 30.4832 31.6332 31.6332C30.4832 32.7665 29.1165 33.3332 27.4998 33.3332ZM27.4998 29.9998C28.1998 29.9998 28.7832 29.7498 29.2665 29.2665C29.7498 28.7832 29.9998 28.1998 29.9998 27.4998C29.9998 26.7998 29.7498 26.2165 29.2665 25.7332C28.7832 25.2498 28.1998 24.9998 27.4998 24.9998C26.7998 24.9998 26.2165 25.2498 25.7332 25.7332C25.2498 26.2165 24.9998 26.7998 24.9998 27.4998C24.9998 28.1998 25.2498 28.7832 25.7332 29.2665C26.2165 29.7498 26.7998 29.9998 27.4998 29.9998ZM8.99984 33.3332L6.6665 30.9998L30.9998 6.6665L33.3332 8.99984L8.99984 33.3332Z" fill="#F44336"/>
</svg>
