<svg width="111" height="57" viewBox="0 0 111 57" fill="none" xmlns="http://www.w3.org/2000/svg">
<path d="M22.9046 46.9978C22.8933 46.6605 22.8776 46.3231 22.8776 45.9812C22.8776 38.6495 25.311 31.8793 29.4071 26.436L26.8656 23.9816C22.1723 30.0702 19.3672 37.7008 19.3672 45.9812C19.3672 46.3208 19.3717 46.6605 19.383 46.9978H22.9046Z" fill="#353533"/>
<path d="M30.2969 25.3014C36.0852 18.2777 44.7575 13.7446 54.4685 13.5295V10.004C43.7638 10.2169 34.1993 15.1643 27.7666 22.8537L30.2969 25.3014Z" fill="#353533"/>
<path d="M80.8281 26.2617C85.0054 31.7322 87.4951 38.5703 87.4951 45.9835C87.4951 46.3254 87.4771 46.6605 87.4659 47.0001H90.9875C90.9988 46.6628 91.0033 46.3231 91.0033 45.9835C91.0033 37.6215 88.144 29.923 83.3674 23.8073L80.8281 26.2617Z" fill="#353533"/>
<path d="M55.9038 13.5295C65.536 13.7423 74.1407 18.2052 79.929 25.1293L82.4592 22.6839C76.0288 15.0941 66.5273 10.2146 55.9038 10.004V13.5295Z" fill="#353533"/>
<path d="M86.0621 45.981C86.0621 38.955 83.7233 32.4701 79.7916 27.2646L77.543 29.4405C77.4033 29.5741 77.2253 29.6421 77.045 29.6421C76.8558 29.6421 76.6687 29.5673 76.529 29.4202C76.2542 29.1326 76.2632 28.6775 76.5493 28.4012L78.8948 26.1302C73.3702 19.4778 65.1305 15.1847 55.9039 14.9696V18.083C55.9039 18.4815 55.5839 18.803 55.1874 18.803C54.7908 18.803 54.4709 18.4815 54.4709 18.083V14.9719C45.1632 15.187 36.8604 19.5525 31.3357 26.3023L33.7015 28.5892C33.9876 28.8654 33.9967 29.3205 33.7218 29.6081C33.5821 29.7553 33.3928 29.83 33.2058 29.83C33.0256 29.83 32.8476 29.7621 32.7079 29.6285L30.448 27.4412C26.5974 32.6173 24.3149 39.0365 24.3149 45.981C24.3149 46.3229 24.333 46.658 24.3442 46.9977H86.0395C86.044 46.6603 86.0621 46.3229 86.0621 45.981ZM68.7985 25.8041L58.7608 41.808C58.1412 42.7974 57.1296 43.4835 55.985 43.6918C55.7416 43.7371 55.4938 43.7575 55.2482 43.7575C54.3447 43.7575 53.4547 43.4609 52.727 42.9061C51.8009 42.1997 51.2106 41.1241 51.1024 39.9626C50.9965 38.7987 51.3863 37.6349 52.1682 36.77L64.8353 22.7745C65.892 21.6062 67.3182 21.7941 68.197 22.4666C69.0734 23.1368 69.6367 24.4682 68.7985 25.8041Z" fill="#353533"/>
<path d="M67.3297 23.6145C66.9714 23.3406 66.3834 23.2115 65.8967 23.7459L53.2296 37.739C52.7091 38.3142 52.4613 39.0568 52.5311 39.8312C52.601 40.6056 52.9795 41.2894 53.5946 41.7604C54.2097 42.2313 54.9713 42.4147 55.7283 42.2744C56.4899 42.1362 57.1365 41.697 57.5488 41.0403L67.5865 25.0365C67.9696 24.4251 67.6879 23.8863 67.3297 23.6145Z" fill="#E82144"/>
</svg>
