<svg width="66" height="57" viewBox="0 0 66 57" fill="none" xmlns="http://www.w3.org/2000/svg">
<g clip-path="url(#clip0_84_7020)">
<path fill-rule="evenodd" clip-rule="evenodd" d="M4.77604 40.5556H10.4932C11.2165 40.5556 11.811 39.9659 11.811 39.2483V21.3787C11.811 20.6611 12.4055 20.0714 13.1288 20.0714H15.0709C15.7942 20.0714 16.3887 20.6611 16.3887 21.3787V39.2483C16.3887 39.9659 16.9832 40.5556 17.7263 40.5556H64.6824C65.4057 40.5556 66.0002 41.1454 66.0002 41.8629V55.6927C66.0002 56.4102 65.4057 57 64.6824 57H4.77604C4.05273 57 3.45822 56.4102 3.45822 55.6927V41.8629C3.45822 41.1454 4.05273 40.5556 4.77604 40.5556ZM3.64648 12.5225C4.28062 13.6234 4.91476 14.7046 5.5489 15.7957C5.91551 16.4444 6.78745 16.5722 7.34232 16.0709C10.6319 13.1221 17.3498 13.1221 20.6295 16.0709C21.1844 16.5722 22.0563 16.4346 22.4229 15.7957C23.0571 14.7144 23.6912 13.6234 24.3254 12.5225C24.6325 12.0212 24.4938 11.3823 24.0182 11.0285C18.5686 6.95913 9.42309 6.95913 3.95364 11.0285C3.46813 11.3823 3.34923 12.0212 3.64648 12.5225ZM0.158718 4.90481C0.792857 5.99586 1.4369 7.09674 2.07104 8.19762C2.43765 8.82669 3.26996 8.9643 3.84465 8.51216C8.11518 4.9343 19.8567 4.9343 24.1371 8.51216C24.692 8.9643 25.5342 8.82669 25.8909 8.19762C26.5349 7.09674 27.1691 5.99586 27.823 4.90481C28.1104 4.38386 27.9816 3.7253 27.4961 3.3911C21.1448 -1.13037 6.83699 -1.13037 0.495604 3.3911C0.000182837 3.73513 -0.148443 4.38386 0.158718 4.90481ZM55.0613 45.0967H59.203C60.5803 45.0967 61.7098 46.2271 61.7098 47.5934V50.8272C61.7098 52.2033 60.5803 53.314 59.203 53.314H55.0613C53.6741 53.314 52.5545 52.2033 52.5545 50.8272V47.5934C52.5545 46.2271 53.6741 45.0967 55.0613 45.0967Z" fill="#353533"/>
<path fill-rule="evenodd" clip-rule="evenodd" d="M4.91474 14.7068C4.49199 13.9816 4.06923 13.2564 3.64648 12.5225C3.34923 12.0212 3.46813 11.3823 3.95364 11.0285C9.42309 6.95913 18.5686 6.95913 24.0182 11.0285C24.4938 11.3823 24.6325 12.0212 24.3254 12.5225C23.6912 13.6234 23.0571 14.7144 22.4229 15.7957C22.0563 16.4346 21.1844 16.5722 20.6295 16.0709C17.3498 13.1221 10.6319 13.1221 7.34232 16.0709C6.78745 16.5722 5.91551 16.4444 5.5489 15.7957C5.33751 15.432 5.12613 15.0694 4.91474 14.7068ZM0.725655 5.87897C0.536148 5.55355 0.346996 5.22875 0.158718 4.90481C-0.148443 4.38386 0.000182837 3.73513 0.495604 3.3911C6.83699 -1.13037 21.1448 -1.13037 27.4961 3.3911C27.9816 3.7253 28.1104 4.38386 27.823 4.90481C27.3518 5.69097 26.8909 6.48223 26.4291 7.27491C26.2501 7.58234 26.0709 7.88998 25.8909 8.19762C25.5342 8.82669 24.692 8.9643 24.1371 8.51216C19.8567 4.9343 8.11518 4.9343 3.84465 8.51216C3.26996 8.9643 2.43765 8.82669 2.07104 8.19762C1.62518 7.4236 1.17442 6.64957 0.725655 5.87897Z" fill="#E82144"/>
</g>
<defs>
<clipPath id="clip0_84_7020">
<rect width="66" height="57" fill="white"/>
</clipPath>
</defs>
</svg>
