<svg width="83" height="57" viewBox="0 0 83 57" fill="none" xmlns="http://www.w3.org/2000/svg">
<path d="M61.7954 36.0157C61.5867 36.1394 61.5017 36.3944 61.6022 36.6185C62.545 38.7281 63.1709 41.0078 63.4182 43.4034C63.4414 43.6429 63.65 43.8207 63.8896 43.8207L75.4579 43.8207C75.7361 43.8207 75.9448 43.5888 75.9293 43.3107C75.6202 38.7127 74.407 34.362 72.4828 30.4286C72.3591 30.1813 72.0577 30.0886 71.8182 30.2277L61.7954 36.0157Z" fill="#353533"/>
<path d="M32.1363 25.3357C34.246 24.393 36.5256 23.767 38.9212 23.5197C39.1608 23.4965 39.3385 23.2879 39.3385 23.0483L39.3385 11.4723C39.3385 11.1941 39.1067 10.9854 38.8285 11.0009C34.2305 11.31 29.8798 12.5155 25.9464 14.4474C25.6992 14.5711 25.6064 14.8725 25.7455 15.112L31.5336 25.1348C31.6572 25.3512 31.9122 25.4362 32.1363 25.3357Z" fill="#353533"/>
<path d="M19.046 43.4034C19.2933 41.0078 19.9192 38.7281 20.862 36.6185C20.9625 36.4021 20.8775 36.1394 20.6688 36.0157L10.646 30.2277C10.4065 30.0886 10.1051 30.1813 9.98144 30.4286C8.04953 34.3697 6.84401 38.7204 6.52717 43.3107C6.51172 43.5811 6.72037 43.8207 6.99856 43.8207L18.5746 43.8207C18.8142 43.8207 19.0151 43.6429 19.046 43.4034Z" fill="#353533"/>
<path d="M43.1177 11.4799L43.1177 23.056C43.1177 23.2955 43.2954 23.5042 43.535 23.5274C45.9306 23.7746 48.2102 24.4006 50.3199 25.3434C50.5362 25.4438 50.799 25.3588 50.9226 25.1502L56.7107 15.1274C56.8498 14.8878 56.757 14.5864 56.5097 14.4628C52.5764 12.5386 48.2257 11.3331 43.6277 11.0162C43.3495 10.9931 43.1177 11.2094 43.1177 11.4799Z" fill="#353533"/>
<path d="M59.9794 17.0132L54.1914 27.036C54.0677 27.2447 54.1218 27.5074 54.3227 27.6542C56.2237 29.0375 57.9084 30.7144 59.2916 32.6231C59.4307 32.8163 59.7012 32.8704 59.9098 32.7545L69.9326 26.9665C70.1722 26.8274 70.2418 26.5183 70.0872 26.2942C67.5834 22.5772 64.3764 19.3779 60.6594 16.8664C60.4276 16.7041 60.1185 16.7737 59.9794 17.0132Z" fill="#353533"/>
<path d="M42.4454 39.0989L22.5621 25.9618C22.0675 25.6372 21.4802 25.6527 21.1866 26.0082C20.8929 26.3636 20.9702 26.9432 21.3798 27.376L37.7702 44.6782C39.7562 46.3474 42.4145 46.4479 43.7051 44.9101C44.9956 43.3645 44.4315 40.768 42.4454 39.0989Z" fill="#E82144"/>
<path d="M23.1723 32.6148C23.2573 32.4989 23.3346 32.3907 23.4196 32.2748L20.004 28.6737C18.9375 27.5454 18.8216 25.884 19.7335 24.7944C20.2435 24.1916 21.0086 23.8361 21.8354 23.8361C22.4536 23.8361 23.0641 24.0216 23.6051 24.3848L28.2803 27.4759C28.3499 27.3368 28.3421 27.1745 28.2649 27.0354L22.4768 17.0126C22.3377 16.773 22.0286 16.7035 21.8045 16.858C18.0875 19.3618 14.8882 22.5688 12.3767 26.2858C12.2222 26.5099 12.2917 26.8267 12.5313 26.9581L22.5541 32.7461C22.7627 32.8698 23.0255 32.8157 23.1723 32.6148Z" fill="#353533"/>
</svg>
