<svg width="69" height="57" viewBox="0 0 69 57" fill="none" xmlns="http://www.w3.org/2000/svg">
<g clip-path="url(#clip0_84_7002)">
<path d="M59.8823 3.00024H47.287H41.3111H27.9867H22.9828H9.12946C6.61326 3.00024 4.56885 5.04466 4.56885 7.56085V44.7749H64.4429V7.56085C64.4429 5.04466 62.3985 3.00024 59.8823 3.00024Z" stroke="#353533" stroke-width="2.85932" stroke-miterlimit="10" stroke-linecap="round" stroke-linejoin="round"/>
<path d="M58.8674 8.57593H10.1304V39.2135H58.8674V8.57593Z" stroke="#353533" stroke-width="2.85932" stroke-miterlimit="10" stroke-linecap="round" stroke-linejoin="round"/>
<path d="M67.2167 44.7749H1.78125V47.8344L17.1215 54.5109H51.6334L67.2167 47.9773V44.7749Z" stroke="#353533" stroke-width="2.85932" stroke-miterlimit="10" stroke-linecap="round" stroke-linejoin="round"/>
<path d="M46.3436 44.7749H22.6685V48.9495H46.3436V44.7749Z" stroke="#353533" stroke-width="2.85932" stroke-miterlimit="10" stroke-linecap="round" stroke-linejoin="round"/>
<path d="M17.0928 15.5415V12.7537H14.3049V15.5415H17.0928Z" fill="#353533"/>
<path d="M17.0952 19.7183V16.9304H14.3074V19.7183H17.0952Z" fill="#353533"/>
<path d="M17.0981 23.8955V21.1077H14.3103V23.8955H17.0981Z" fill="#353533"/>
<path d="M23.9834 17.3539C27.0286 15.3381 30.7028 14.1372 34.6058 14.1372C38.5659 14.1372 42.2401 15.3381 45.2853 17.3539" stroke="#E82144" stroke-width="2.85932" stroke-miterlimit="10" stroke-linecap="round" stroke-linejoin="round"/>
<path d="M27.0288 21.4284C29.2162 20.0559 31.8611 19.1838 34.606 19.1838C37.4224 19.1838 40.0673 20.0416 42.2404 21.4284" stroke="#E82144" stroke-width="2.85932" stroke-miterlimit="10" stroke-linecap="round" stroke-linejoin="round"/>
<path d="M30.188 25.8035C31.5033 25.06 33.0044 24.6025 34.6056 24.6025C36.2783 24.6025 37.7652 25.06 39.0805 25.8035" stroke="#E82144" stroke-width="2.85932" stroke-miterlimit="10" stroke-linecap="round" stroke-linejoin="round"/>
<path d="M34.6201 28.9629C35.6494 28.9629 36.4643 29.7635 36.4643 30.75C36.4643 31.7221 35.6637 32.537 34.6201 32.537C33.6479 32.537 32.833 31.7364 32.833 30.75C32.833 29.7635 33.6336 28.9629 34.6201 28.9629Z" stroke="#E82144" stroke-width="2.85932" stroke-miterlimit="10" stroke-linecap="round" stroke-linejoin="round"/>
</g>
<defs>
<clipPath id="clip0_84_7002">
<rect width="69" height="57" fill="white" transform="translate(-0.00195312)"/>
</clipPath>
</defs>
</svg>
