<svg width="50" height="57" viewBox="0 0 50 57" fill="none" xmlns="http://www.w3.org/2000/svg">
<path fill-rule="evenodd" clip-rule="evenodd" d="M3.52637 34.3662C3.52637 46.3329 13.1113 56.0001 24.9761 56.0001C36.7943 56.0001 46.4258 46.3329 46.3327 34.3662C46.3327 30.565 45.4021 26.9984 43.6806 23.9011L45.9605 22.4464C46.5188 22.0709 46.7049 21.2732 46.3327 20.6631L45.7278 19.6776C45.3556 19.1145 44.5646 18.9267 43.9598 19.3022L41.5868 20.8039C38.702 17.1904 34.7006 14.5624 30.0942 13.3892C30.0942 13.2752 30.0988 13.159 30.1033 13.042C30.1194 12.6289 30.1359 12.2063 29.9546 11.8406C30.9317 10.6674 31.5366 9.21258 31.5366 7.57009C31.5366 3.90968 28.6518 1.00012 25.0226 1.00012C21.3934 1.00012 18.5086 3.95661 18.5086 7.57009C18.5086 9.21258 19.1135 10.7143 20.0906 11.8406C19.9355 12.2314 19.9419 12.6549 19.9484 13.0837C19.9497 13.1698 19.951 13.256 19.951 13.3423C10.5522 15.5948 3.52637 24.1358 3.52637 34.3662ZM23.8129 11.0428H21.5329C20.6489 10.1511 20.1371 8.93101 20.0906 7.61702C20.0906 4.84824 22.3239 2.64261 25.0226 2.64261C27.7678 2.64261 29.9546 4.89517 29.9546 7.61702C29.9546 8.93101 29.4428 10.1511 28.6053 11.0428H26.3254V8.46173H23.8129V11.0428ZM41.7729 34.4131C41.7729 43.7518 34.2818 51.3542 24.9761 51.3542C15.6703 51.3542 8.17923 43.7518 8.17923 34.3662C8.17923 25.0274 15.6703 17.425 24.9761 17.472C34.2353 17.472 41.7729 25.0274 41.7729 34.4131ZM17.1127 22.024L18.2759 24.0889C18.4155 24.3235 18.7412 24.4174 18.9739 24.2766L19.253 24.1358C19.4857 23.995 19.5787 23.6665 19.4392 23.4319L18.2759 21.367C18.1364 21.1324 17.8107 21.0385 17.578 21.1793L17.2988 21.3201C17.0662 21.4609 16.9731 21.7894 17.1127 22.024ZM31.6762 24.0889L32.8394 22.024C33.0255 21.7894 32.9325 21.4609 32.6533 21.2732L32.3741 21.1324C32.1415 20.9916 31.8158 21.0854 31.6762 21.3201L30.513 23.3849C30.3734 23.6665 30.4199 23.995 30.6991 24.1358L30.9783 24.2766C31.2109 24.4174 31.5366 24.3235 31.6762 24.0889ZM35.1658 28.6409C35.3054 28.8755 35.6311 28.9694 35.8638 28.8286L37.9576 27.6554C38.1902 27.5146 38.2833 27.1861 38.1437 26.9515L38.0041 26.7168C37.8645 26.4353 37.5388 26.3414 37.2596 26.4822L35.2124 27.6554C34.9797 27.7962 34.8867 28.1247 35.0263 28.3593L35.1658 28.6409ZM37.1666 35.0701H39.5395C39.8187 35.0701 40.0513 34.8354 40.0513 34.5539V34.2254C40.0513 33.9438 39.8187 33.7092 39.5395 33.7092H37.1666C36.8874 33.7092 36.6548 33.9438 36.6548 34.2254V34.5539C36.6548 34.8354 36.8874 35.0701 37.1666 35.0701ZM34.9797 40.4199C34.8401 40.6546 34.9332 40.9831 35.1658 41.1238L37.2596 42.344C37.4923 42.4848 37.818 42.3909 37.9576 42.1563L38.0506 41.8278C38.1902 41.5931 38.0971 41.2646 37.8645 41.1238L35.8172 39.9506C35.5846 39.8098 35.2589 39.9037 35.1193 40.1383L34.9797 40.4199ZM30.4664 45.3943L31.6297 47.4592C31.8158 47.6938 32.1415 47.7877 32.3741 47.6469L32.6068 47.5061C32.8394 47.3653 32.9325 47.0368 32.7929 46.8022L31.6297 44.7373C31.4901 44.5027 31.1644 44.4088 30.9317 44.5496L30.6526 44.6904C30.4199 44.8312 30.3269 45.1597 30.4664 45.3943ZM24.2781 19.6776V22.0709C24.2781 22.3994 24.5108 22.6341 24.79 22.5872H25.1157C25.3948 22.5872 25.6275 22.3525 25.6275 22.0709V19.6776C25.6275 19.396 25.3948 19.1614 25.1157 19.1614H24.79C24.5108 19.1614 24.2781 19.396 24.2781 19.6776ZM24.2781 46.7083V49.1017C24.2781 49.3832 24.5108 49.6179 24.79 49.6179H25.1157C25.3948 49.6179 25.6275 49.3832 25.6275 49.1017V46.7083C25.6275 46.4267 25.3948 46.1921 25.1157 46.1921H24.79C24.5108 46.1921 24.2781 46.4267 24.2781 46.7083ZM18.9739 44.5027C18.7412 44.3619 18.4155 44.4558 18.2759 44.6904L17.1127 46.7552C16.9731 46.9899 17.0662 47.3184 17.2988 47.4592L17.578 47.5999C17.8107 47.7407 18.1364 47.6469 18.2759 47.4122L19.4392 45.3474C19.5787 45.1128 19.4857 44.7843 19.253 44.6435L18.9739 44.5027ZM14.7863 40.1383C14.6467 39.9037 14.321 39.8098 14.0884 39.9506L11.9946 41.1708C11.7619 41.3116 11.6689 41.6401 11.8085 41.8747L11.9946 42.1093C12.1342 42.344 12.4599 42.4378 12.6925 42.2971C13.3904 41.9216 14.0418 41.5462 14.7398 41.1238C14.9724 40.9831 15.0655 40.6546 14.9259 40.4199L14.7863 40.1383ZM12.7856 33.6622H10.4126C10.1334 33.6622 9.90079 33.8969 9.90079 34.1784V34.507C9.90079 34.7885 10.1334 35.0232 10.4126 35.0232H12.7856C13.0647 35.0232 13.2974 34.7885 13.2974 34.507V34.1784C13.2974 33.8969 13.0647 33.6622 12.7856 33.6622ZM14.9259 28.3124C15.0655 28.0778 14.9724 27.7493 14.7398 27.6085L12.6925 26.4353C12.4599 26.2945 12.1342 26.3883 11.9946 26.623L11.855 26.9046C11.7154 27.1392 11.8085 27.4677 12.0411 27.6085L14.0884 28.7817C14.321 28.9225 14.6467 28.8286 14.7863 28.594L14.9259 28.3124Z" fill="#353533"/>
<path fill-rule="evenodd" clip-rule="evenodd" d="M36.7013 29.5325L27.2094 32.8645C26.6046 31.5974 24.883 31.175 23.5802 32.0197L17.2523 26.1068L17.7641 25.966C18.2294 25.8252 18.2759 25.1213 17.8107 24.9336L13.9023 23.4319C13.4835 23.2441 13.0647 23.7134 13.2509 24.1358L15.0189 27.937C15.2051 28.3593 15.903 28.3124 15.996 27.7962L16.1356 27.2331L22.51 33.2399C22.1378 33.9907 22.1844 34.8824 22.5566 35.6332C23.4872 37.4165 25.8601 37.6042 27.0699 36.0556C27.4886 35.5394 27.6747 34.8824 27.6282 34.2254L37.1666 30.8465C37.1666 31.3158 37.7249 31.5974 38.0506 31.2689L39.8187 29.7203C40.1909 29.3918 39.9583 28.7817 39.493 28.7817L37.1666 28.6878C36.7013 28.6409 36.4221 29.1571 36.7013 29.5325Z" fill="#E82144"/>
</svg>
