<svg width="32" height="25" viewBox="0 0 32 25" fill="none" xmlns="http://www.w3.org/2000/svg">
<path d="M29.7882 11.1987C31.2627 12.6908 32 14.4844 32 16.5797C32 18.6749 31.2627 20.4686 29.7882 21.9606C28.3137 23.4527 26.5412 24.1987 24.4706 24.1987C22.4 24.1987 20.6275 23.4527 19.1529 21.9606C17.6784 20.4686 16.9412 18.6749 16.9412 16.5797C16.9412 11.8813 18.149 7.97651 20.5647 4.8654C22.9804 1.75429 25.4431 0.19873 27.9529 0.19873V1.15111C26.5725 1.15111 25.2549 1.83365 24 3.19873C22.7451 4.56381 22.1176 5.84952 22.1176 7.05587C22.1176 8.32572 22.902 8.96064 24.4706 8.96064C26.5412 8.96064 28.3137 9.70667 29.7882 11.1987ZM12.8471 11.1987C14.3216 12.6908 15.0588 14.4844 15.0588 16.5797C15.0588 18.6749 14.3216 20.4686 12.8471 21.9606C11.3725 23.4527 9.6 24.1987 7.52941 24.1987C5.45882 24.1987 3.68627 23.4527 2.21176 21.9606C0.737255 20.4686 0 18.6749 0 16.5797C0 11.8813 1.20784 7.97651 3.62353 4.8654C6.03922 1.75429 8.50196 0.19873 11.0118 0.19873V1.15111C9.63137 1.15111 8.31373 1.83365 7.05882 3.19873C5.80392 4.56381 5.17647 5.84952 5.17647 7.05587C5.17647 8.32572 5.96078 8.96064 7.52941 8.96064C9.6 8.96064 11.3725 9.70667 12.8471 11.1987Z" fill="#DBDBDB"/>
</svg>
