<svg xmlns="http://www.w3.org/2000/svg" width="21" height="21" viewBox="0 0 21 21" fill="none">
  <g clip-path="url(#clip0_47_8317)">
    <path d="M9.3972 3.86477C9.74132 2.80568 11.2396 2.80568 11.5838 3.86477L12.4775 6.61552C12.6314 7.08915 13.0728 7.40983 13.5708 7.40983H16.4631C17.5767 7.40983 18.0397 8.83482 17.1388 9.48937L14.7989 11.1894C14.396 11.4822 14.2274 12.001 14.3813 12.4747L15.2751 15.2254C15.6192 16.2845 14.407 17.1652 13.5061 16.5106L11.1662 14.8106C10.7633 14.5178 10.2177 14.5178 9.81479 14.8106L7.47487 16.5106C6.57396 17.1652 5.36179 16.2845 5.7059 15.2254L6.59968 12.4747C6.75357 12.001 6.58498 11.4822 6.18208 11.1894L3.84216 9.48937C2.94124 8.83482 3.40425 7.40983 4.51784 7.40983H7.41015C7.90816 7.40983 8.34953 7.08915 8.50343 6.61552L9.3972 3.86477Z" fill="#FFCF53"/>
  </g>
  <defs>
    <clipPath id="clip0_47_8317">
      <rect width="20" height="20" fill="white" transform="translate(0.490479 0.5)"/>
    </clipPath>
  </defs>
</svg>