<svg width="78" height="69" viewBox="0 0 78 69" fill="none" xmlns="http://www.w3.org/2000/svg">
<path d="M38.9913 0C26.541 0 16.4453 8.00968 16.4453 17.894C16.4453 24.2847 20.6632 29.8829 27.0153 33.0612L24.7285 41.2839C24.7285 41.2839 24.6862 41.6674 24.9318 41.8122C25.1774 41.9571 25.4739 41.8463 25.4739 41.8463C26.1853 41.744 33.6893 36.4355 35.0021 35.5152C36.298 35.7027 37.6446 35.7964 39.0082 35.7964C51.4585 35.7964 61.5542 27.7868 61.5542 17.9025C61.5542 8.0182 51.4415 0 38.9913 0Z" fill="black"/>
<path d="M26.5215 24.1312C25.8016 24.1312 25.2172 23.5688 25.2172 22.8786V15.099H23.1845C22.4815 15.099 21.9141 14.5281 21.9141 13.8208C21.9141 13.1136 22.49 12.5427 23.1845 12.5427H29.85C30.553 12.5427 31.1205 13.1136 31.1205 13.8208C31.1205 14.5281 30.5445 15.099 29.85 15.099H27.8173V22.8786C27.8173 23.5603 27.2245 24.1312 26.513 24.1312H26.5215ZM37.93 24.1141C37.3879 24.1141 36.9729 23.8926 36.8459 23.5347L36.2022 21.8305H32.2385L31.5948 23.5347C31.4677 23.8926 31.0527 24.1141 30.5107 24.1141C30.2227 24.1141 29.9432 24.0545 29.6806 23.9437C29.3249 23.7733 28.9777 23.3217 29.3757 22.0861L32.4841 13.8464C32.7043 13.2159 33.3734 12.5683 34.2203 12.5512C35.0673 12.5342 35.7448 13.2159 35.9566 13.8464L39.0649 22.0861C39.463 23.3217 39.1157 23.7903 38.76 23.9437C38.5059 24.063 38.218 24.1141 37.93 24.1141ZM35.5162 19.5128L34.2203 15.7977L32.9245 19.5128H35.5162ZM41.1569 23.9437C40.4793 23.9437 39.9119 23.4069 39.9119 22.7508V13.8464C39.9119 13.1221 40.5047 12.5342 41.2416 12.5342C41.9784 12.5342 42.5713 13.1306 42.5713 13.8464V21.5323H45.3324C46.0099 21.5323 46.5774 22.0691 46.5774 22.7252C46.5774 23.3813 46.0184 23.9181 45.3324 23.9181L41.1569 23.9437ZM47.0771 22.8019V13.8549C47.0771 13.1306 47.67 12.5427 48.3814 12.5427C49.0929 12.5427 49.6857 13.1392 49.6857 13.8549V16.6668L53.3276 13.0028C53.7285 12.5995 54.4864 12.6349 54.9453 13.0966C55.3764 13.5303 55.4885 14.2633 55.0385 14.7241L52.0572 17.7064L55.2587 21.9669C55.6889 22.5208 55.5845 23.3837 55.0046 23.7903C54.4329 24.2164 53.593 24.0744 53.1837 23.5347L50.1346 19.4702L49.6857 19.9218V22.7763C49.6857 24.4766 47.0771 24.5421 47.0771 22.8019Z" fill="#FFE812"/>
<path d="M6.78808 56.6692H8.21223C8.21223 60.4669 7.10921 63.8039 2.45977 66.1356L1.66392 65.0186C5.67109 63.022 6.78808 60.3552 6.78808 56.8367V56.6692ZM2.40392 56.6692H7.65374V57.842H2.40392V56.6692ZM6.7043 59.8107V60.9416L1.95713 61.4024L1.7477 60.1318L6.7043 59.8107ZM10.0552 55.3707H11.5213V68.1322H10.0552V55.3707ZM11.1303 60.425H13.4341V61.6258H11.1303V60.425ZM18.9342 56.6692H20.3583C20.3583 60.4669 19.2553 63.8039 14.6059 66.1356L13.81 65.0186C17.8172 63.022 18.9342 60.3552 18.9342 56.8367V56.6692ZM14.55 56.6692H19.7998V57.842H14.55V56.6692ZM18.8504 59.8107V60.9416L14.1032 61.4024L13.8938 60.1318L18.8504 59.8107ZM22.2013 55.3707H23.6674V68.1322H22.2013V55.3707ZM23.2764 60.425H25.5802V61.6258H23.2764V60.425ZM30.9546 62.5752H32.4066V65.633H30.9546V62.5752ZM31.6806 56.1386C34.3893 56.1386 36.3719 57.493 36.3719 59.5594C36.3719 61.6398 34.3893 62.9801 31.6806 62.9801C28.9859 62.9801 26.9893 61.6398 26.9893 59.5594C26.9893 57.493 28.9859 56.1386 31.6806 56.1386ZM31.6806 57.2975C29.7817 57.2975 28.4134 58.1771 28.4134 59.5594C28.4134 60.9556 29.7817 61.8213 31.6806 61.8213C33.5934 61.8213 34.9478 60.9556 34.9478 59.5594C34.9478 58.1771 33.5934 57.2975 31.6806 57.2975ZM25.9282 65.3816H37.4889V66.5824H25.9282V65.3816ZM38.0603 62.2122H49.5931V63.385H38.0603V62.2122ZM43.0867 60.5786H44.5388V62.5613H43.0867V60.5786ZM39.3448 64.3484H48.141V68.1462H46.675V65.5213H39.3448V64.3484ZM39.5403 59.9364H48.2946V61.0673H39.5403V59.9364ZM39.5403 55.7058H48.2108V56.8367H40.9924V60.4949H39.5403V55.7058ZM40.5735 57.8141H47.9037V58.9032H40.5735V57.8141ZM55.6183 56.0549H56.819V57.2835C56.819 59.7828 55.5624 61.8911 53.3005 62.7288L52.5326 61.5699C54.5432 60.8579 55.6183 59.1405 55.6183 57.2835V56.0549ZM55.8975 56.0549H57.0843V57.4092C57.0843 59.0567 58.1734 60.5926 60.0862 61.2209L59.3183 62.3658C57.1541 61.5979 55.8975 59.6711 55.8975 57.4092V56.0549ZM61.1473 55.3847H62.6134V63.036H61.1473V55.3847ZM62.2084 58.5262H64.4145V59.7409H62.2084V58.5262ZM58.5084 63.3571C61.1334 63.3571 62.753 64.2367 62.753 65.7447C62.753 67.2526 61.1334 68.1322 58.5084 68.1322C55.8696 68.1322 54.25 67.2526 54.25 65.7447C54.25 64.2367 55.8696 63.3571 58.5084 63.3571ZM58.5084 64.502C56.7352 64.502 55.702 64.9349 55.702 65.7447C55.702 66.5545 56.7352 66.9873 58.5084 66.9873C60.2817 66.9873 61.3009 66.5545 61.3009 65.7447C61.3009 64.9349 60.2817 64.502 58.5084 64.502ZM73.2934 55.3847H74.7594V62.5752H73.2934V55.3847ZM74.3545 58.3865H76.5606V59.5873H74.3545V58.3865ZM65.3349 60.7881H66.3542C69.0489 60.7881 70.473 60.7182 72.1066 60.3832L72.2602 61.556C70.5847 61.905 69.1047 61.9749 66.3542 61.9749H65.3349V60.7881ZM65.3349 56.2084H70.9757V57.3813H66.787V61.4722H65.3349V56.2084ZM66.6194 63.2035H74.7594V67.9926H66.6194V63.2035ZM73.3213 64.3624H68.0575V66.8198H73.3213V64.3624Z" fill="#3D1716"/>
</svg>
