<svg width="40" height="43" viewBox="0 0 40 43" fill="none" xmlns="http://www.w3.org/2000/svg">
<path d="M19.9926 0.987305C9.45926 0.987305 0.917969 8.99698 0.917969 18.8813C0.917969 25.272 4.48639 30.8702 9.86053 34.0485L7.92584 42.2712C7.92584 42.2712 7.89001 42.6547 8.09781 42.7995C8.30561 42.9444 8.55641 42.8336 8.55641 42.8336C9.15831 42.7313 15.507 37.4228 16.6176 36.5025C17.7139 36.69 18.8532 36.7837 20.0069 36.7837C30.5402 36.7837 39.0815 28.7741 39.0815 18.8898C39.0815 9.0055 30.5259 0.987305 19.9926 0.987305Z" fill="black"/>
<path d="M24.3062 28.9971C24.5566 28.9986 24.8048 28.9501 25.0362 28.8546C25.2677 28.7591 25.4778 28.6185 25.6544 28.4409L28.2092 25.8861C28.3848 25.7094 28.4834 25.4705 28.4834 25.2214C28.4834 24.9724 28.3848 24.7334 28.2092 24.5568L24.4382 20.7858C24.2616 20.6102 24.0226 20.5116 23.7736 20.5116C23.5245 20.5116 23.2856 20.6102 23.1089 20.7858L21.6005 22.2847C20.5562 22.0063 19.589 21.4937 18.7723 20.7858C18.0663 19.9678 17.5539 19.001 17.2733 17.9575L18.7723 16.4491C18.9479 16.2725 19.0464 16.0335 19.0464 15.7845C19.0464 15.5354 18.9479 15.2965 18.7723 15.1198L15.0013 11.3488C14.8246 11.1732 14.5857 11.0747 14.3366 11.0747C14.0876 11.0747 13.8486 11.1732 13.672 11.3488L11.1266 13.9131C10.949 14.0896 10.8083 14.2998 10.7128 14.5312C10.6173 14.7627 10.5689 15.0109 10.5703 15.2613C10.6559 18.8836 12.1033 22.3406 14.6242 24.9433C17.2268 27.4642 20.6839 28.9116 24.3062 28.9971ZM14.3413 13.3569L16.7831 15.7986L15.5669 17.0148C15.4517 17.1227 15.3655 17.2577 15.3161 17.4076C15.2667 17.5575 15.2557 17.7174 15.2841 17.8727C15.6365 19.4474 16.3825 20.9071 17.4524 22.1151C18.6595 23.1863 20.1195 23.9326 21.6948 24.2834C21.8477 24.3153 22.0061 24.3088 22.1559 24.2644C22.3056 24.22 22.442 24.139 22.5527 24.0288L23.7689 22.7844L26.2106 25.2261L24.3251 27.1116C21.1987 27.0311 18.2156 25.7834 15.9629 23.614C13.7879 21.3604 12.5366 18.3734 12.4558 15.2424L14.3413 13.3569ZM27.5399 18.6269H29.4254C29.4498 17.5059 29.2471 16.3917 28.8293 15.3512C28.4116 14.3107 27.7875 13.3656 26.9947 12.5728C26.2019 11.78 25.2568 11.1559 24.2163 10.7382C23.1758 10.3204 22.0615 10.1177 20.9406 10.1421V12.0276C21.8154 11.9974 22.687 12.1474 23.5014 12.4683C24.3157 12.7892 25.0554 13.2742 25.6743 13.8932C26.2932 14.5121 26.7783 15.2517 27.0992 16.0661C27.4201 16.8804 27.5701 17.7521 27.5399 18.6269Z" fill="#FFE812"/>
<path d="M20.9453 15.7991C22.9251 15.7991 23.7736 16.6476 23.7736 18.6273H25.6591C25.6591 15.5917 23.981 13.9136 20.9453 13.9136V15.7991Z" fill="#FFE812"/>
</svg>
