<svg width="24" height="24" viewBox="0 0 24 24" fill="none" xmlns="http://www.w3.org/2000/svg">
<path d="M12 0.786133L8.01718 7.92183L0 9.50466L5.55567 15.4976L4.58359 23.6115L12 20.1796L19.4164 23.6115L18.4443 15.4976L24 9.50466L15.9828 7.92183L12 0.786133ZM17.3749 14.5062L16.9162 15.0011L16.9964 15.671L17.6578 21.191L12.6124 18.8563L12 18.5729L11.3876 18.8563L6.34223 21.191L7.00355 15.671L7.08379 15.0011L6.62506 14.5062L2.84552 10.4292L8.29964 9.35241L8.96165 9.22169L9.29049 8.63247L12 3.77806L14.7095 8.63247L15.0384 9.22169L15.7004 9.35241L21.1545 10.4292L17.3749 14.5062Z" fill="#FFC239"/>
</svg>
