<svg width="104" height="26" viewBox="0 0 104 26" fill="none" xmlns="http://www.w3.org/2000/svg">
<path d="M9.69913 3.62604L8.10968 5.18905L4.93501 8.31095L8.10968 11.437L12.878 16.126L16.0569 13L11.2886 8.31095L12.878 6.75207L19.2358 13L12.878 19.2521L3.34556 9.87396L0.166672 13L9.69913 22.374L12.878 25.5L16.0569 22.374L22.4105 16.126L25.5894 13L22.4105 9.87396L16.0569 3.62604L12.878 0.5L9.69913 3.62604Z" fill="#F44336"/>
<path d="M34.0608 3.99286L38.7536 17.1929L43.4679 3.99286H46.8322L40.6179 20.8571H36.9108L30.6965 3.99286H34.0608ZM58.0949 3.99286H61.4807V20.8571H58.6092L58.2021 19.2071C57.9449 19.5357 57.6307 19.8286 57.2592 20.0857C56.8878 20.3571 56.4807 20.5786 56.0378 20.75C55.6092 20.9357 55.1592 21.0714 54.6878 21.1571C54.2164 21.2571 53.7521 21.3 53.2949 21.2857C52.4235 21.2714 51.5949 21.0929 50.8092 20.75C50.0378 20.4071 49.3521 19.9429 48.7521 19.3571C48.1664 18.7714 47.7021 18.0786 47.3592 17.2786C47.0164 16.4643 46.8449 15.5857 46.8449 14.6429C46.8449 13.6714 47.0235 12.7786 47.3807 11.9643C47.7378 11.1357 48.2164 10.4286 48.8164 9.84286C49.4164 9.24286 50.1021 8.77857 50.8735 8.45C51.6449 8.10714 52.4449 7.93571 53.2735 7.93571C54.2878 7.93571 55.2092 8.10714 56.0378 8.45C56.8664 8.77857 57.5521 9.24286 58.0949 9.84286V3.99286ZM53.9592 18.6714C54.4735 18.6714 54.9592 18.5786 55.4164 18.3929C55.8735 18.2071 56.2664 17.9429 56.5949 17.6C56.9378 17.2429 57.2021 16.8143 57.3878 16.3143C57.5878 15.8143 57.6878 15.2571 57.6878 14.6429C57.6878 14 57.5878 13.4286 57.3878 12.9286C57.2021 12.4286 56.9378 12.0071 56.5949 11.6643C56.2664 11.3071 55.8735 11.0357 55.4164 10.85C54.9592 10.6643 54.4735 10.5714 53.9592 10.5714C53.4449 10.5714 52.9592 10.6643 52.5021 10.85C52.0449 11.0357 51.6449 11.3071 51.3021 11.6643C50.9735 12.0071 50.7092 12.4286 50.5092 12.9286C50.3235 13.4286 50.2307 14 50.2307 14.6429C50.2307 15.2571 50.3235 15.8143 50.5092 16.3143C50.7092 16.8143 50.9735 17.2429 51.3021 17.6C51.6449 17.9429 52.0449 18.2071 52.5021 18.3929C52.9592 18.5786 53.4449 18.6714 53.9592 18.6714ZM66.1968 16.7429C66.4968 17.4286 66.9539 17.9571 67.5682 18.3286C68.1825 18.7 68.9468 18.8857 69.8611 18.8857C70.7182 18.8857 71.4968 18.7429 72.1968 18.4571C72.9111 18.1714 73.5539 17.6857 74.1254 17L76.2896 18.65C75.5468 19.55 74.6539 20.25 73.6111 20.75C72.5682 21.25 71.4325 21.5 70.2039 21.5C69.1468 21.5 68.1611 21.3357 67.2468 21.0071C66.3325 20.6929 65.5325 20.2357 64.8468 19.6357C64.1754 19.05 63.6396 18.3357 63.2396 17.4929C62.8539 16.6357 62.6611 15.6786 62.6611 14.6214C62.6611 13.5929 62.8468 12.6571 63.2182 11.8143C63.5896 10.9571 64.0968 10.2286 64.7396 9.62857C65.3825 9.01429 66.1396 8.54286 67.0111 8.21429C67.8968 7.87143 68.8539 7.7 69.8825 7.7C70.8825 7.7 71.7968 7.86429 72.6254 8.19286C73.4682 8.52143 74.1968 8.97857 74.8111 9.56429C75.4254 10.1357 75.9111 10.8286 76.2682 11.6429C76.6396 12.4429 76.8468 13.3214 76.8896 14.2786L66.1968 16.7429ZM70.0325 10.3143C68.7611 10.3143 67.7539 10.6714 67.0111 11.3857C66.2825 12.0857 65.8825 13.0429 65.8111 14.2571L73.5254 12.4143C73.1539 11.6714 72.6682 11.1357 72.0682 10.8071C71.4682 10.4786 70.7896 10.3143 70.0325 10.3143ZM86.6452 11.5357C86.1023 11.15 85.5023 10.8571 84.8452 10.6571C84.2023 10.4429 83.6094 10.3357 83.0666 10.3357C81.638 10.3357 80.9237 10.75 80.9237 11.5786C80.9237 11.9071 81.0452 12.1929 81.288 12.4357C81.5309 12.6643 81.9952 12.8571 82.6809 13.0143C84.5809 13.4571 85.9737 14.0286 86.8594 14.7286C87.7452 15.4286 88.188 16.3286 88.188 17.4286C88.188 18.1143 88.0523 18.7143 87.7809 19.2286C87.5237 19.7429 87.1594 20.1643 86.688 20.4929C86.2166 20.8357 85.6452 21.0857 84.9737 21.2429C84.3166 21.4143 83.5809 21.5 82.7666 21.5C81.6523 21.5 80.638 21.3429 79.7237 21.0286C78.8237 20.7286 77.9737 20.3 77.1737 19.7429L78.3952 17.3643C78.938 17.8214 79.5452 18.1857 80.2166 18.4571C80.888 18.7286 81.6094 18.8643 82.3809 18.8643C83.3094 18.8643 83.9452 18.7571 84.288 18.5429C84.6309 18.3286 84.8023 17.9714 84.8023 17.4714C84.8023 17.0429 84.6023 16.6929 84.2023 16.4214C83.8166 16.15 83.2523 15.9143 82.5094 15.7143C81.6094 15.4714 80.8452 15.2214 80.2166 14.9643C79.588 14.7071 79.0737 14.4214 78.6737 14.1071C78.288 13.7786 78.0023 13.4071 77.8166 12.9929C77.6309 12.5643 77.538 12.0643 77.538 11.4929C77.538 10.9214 77.6594 10.4071 77.9023 9.95C78.1452 9.47857 78.488 9.07857 78.9309 8.75C79.388 8.42143 79.9309 8.17143 80.5594 8C81.188 7.81429 81.888 7.72143 82.6594 7.72143C83.2594 7.72143 83.7952 7.76429 84.2666 7.85C84.7523 7.92143 85.1952 8.02857 85.5952 8.17143C86.0094 8.31429 86.388 8.48571 86.7309 8.68571C87.0737 8.87143 87.4023 9.07857 87.7166 9.30714L86.6452 11.5357ZM98.0592 20.8571L92.9807 15.5643V20.8571H89.5949V3.99286H92.9807V12.9929L97.8449 8.36429H101.938L95.7664 14.1929L102.152 20.8571H98.0592Z" fill="#111111"/>
</svg>
